<svg version="1.1" xmlns="http://www.w3.org/2000/svg" xmlns:xlink="http://www.w3.org/1999/xlink" x="0px" y="0px"
	 viewBox="0 0 46.2139206 55.3097267" enable-background="new 0 0 46.2139206 55.3097267" xml:space="preserve">
<path fill="#FFFFFF" d="M11.1432352,55.0592041h2.4791489v0.24403H2.951195v-0.24403h2.4759123h2.6621766
	c0,0,14.8201952-44.3504868,14.9647341-44.7358627c0.0513439-0.1380463,0.1123772-0.2247505,0.2889805-0.2247505
	s0.2344398,0.0802116,0.2857838,0.2247505l3.3237114,8.9503717l3.9306393,10.5464954l-0.0577374,0.1316547
	c-0.7358837,1.6118126-1.8903027,2.9968758-3.3429909,4.0111504c-0.1509323,0.1027832-0.3211422,0.1990776-0.4592896,0.2922745
	c-1.8015022-4.894268-5.4816189-14.8755932-6.0725613-16.5616226l-9.8073187,29.6419067l-2.6589603,7.7236328H11.1432352z
	 M40.3051758,55.0592041l-4.4959106-11.6479759l-2.4116249-6.7055626c0.4638863-0.2597084,0.9130898-0.5448914,1.3455086-0.854248
	c2.0791931-1.47966,3.8025818-3.403923,5.045002-5.6329498c1.3488007-2.494133,2.1481171-5.2481766,2.3442001-8.0768394
	c0.2224503-2.479147,0.056736-4.9777756-0.4913559-7.4056835c-0.5378036-2.4515791-1.5812454-4.763813-3.0634995-6.7890754
	c-2.052124-2.7682886-4.7592201-4.6662722-7.9351959-5.9283819c-3.4863319-1.3357677-7.1914215-2.008867-10.9248791-1.9846877
	c-6.1239042-0.051384-13.3558197-0.028904-19.479784-0.028904c-0.0738601,0-0.150931,0.0160572-0.2376363,0.0224811v0.2761836
	h0.3211307c1.6056514,0,3.2113097,0,4.8169575,0c0.2504821,0,0.3404021,0.073868,0.3211336,0.3211536
	C5.447495,0.7012089,5.442121,0.7785531,5.4431701,0.8559372v48.3937149l5.7000651-17.2231941V0.6471889
	c0-0.3211437,0-0.3211437,0.3211441-0.3211437c2.0840874,0,5.276145,0,7.3603334,0
	c2.2126427-0.0290477,4.4175987,0.2663345,6.5446358,0.8767273c1.9129772,0.5530863,3.6886082,1.5016636,5.2119179,2.7843504
	c2.0809917,1.7759497,3.4201069,4.0303974,4.2806492,6.5963306c0.7324867,2.2876616,1.1484261,4.6648245,1.2364311,7.0652609
	c0.1575241,2.6027126,0.0575333,5.2145157-0.2986679,7.7974491c-0.2770958,2.093277-0.8704376,4.1322136-1.7598495,6.0471897
	c-0.4434052,0.922575-0.9815102,1.7965069-1.6056175,2.6078053c-0.1958809,0.256916-0.4046516,0.5073357-0.6166172,0.7482681
	l-0.0481453,0.0545387c-0.1958828,0.2151642-0.4013538,0.4239311-0.6101246,0.642292
	c-0.0385571,0.0353584-0.0738163,0.0739174-0.1091785,0.1091766c-0.1958828,0.1830978-0.3982582,0.3596992-0.606926,0.5331116
	l-0.154129,0.131649c-0.2537174,0.205574-0.5170269,0.4046555-0.7900238,0.5909462
	c-0.2119656,0.1445427-0.4303226,0.2793884-0.6422882,0.4110451c-0.2118626,0.1317558-0.3852711,0.2280464-0.5844517,0.3211441
	c-1.7958069,0.9658279-3.7562294,1.587738-5.7802849,1.8337631c-1.1817875,0.1574249-2.3796577,0.1958809-3.5710373,0.2793922
	c-0.1829967,0-0.3211441,0.0353622-0.2953739,0.2954712h0.2728996c3.2931442,0.009388,6.5715084-0.4414139,9.7398911-1.3391113
	l2.3860531,6.6316414c0,0,3.0025673,7.5566101,3.6930008,9.4096527c0.0288696,0.0802116,0.0513458,0.1669197,0.0867043,0.2857857
	h-5.9666786v0.2698021h17.3764191v-0.2793922L40.3051758,55.0592041z"/>
</svg>
