<svg version="1.1" xmlns="http://www.w3.org/2000/svg" xmlns:xlink="http://www.w3.org/1999/xlink" x="0px" y="0px"
	 viewBox="0 0 292 55.9185944" enable-background="new 0 0 292 55.9185944" xml:space="preserve">
<path opacity="0.8" fill="#FFFFFF" enable-background="new    " d="M77.9496078,51.7891769v2.1350288h3.5429688v1.2425194
	h-4.8666992v-7.910923h4.805069v1.229641h-3.4813385v2.0580139h3.1990509v1.2328339L77.9496078,51.7891769z M86.7680283,51.0988426
	l2.5015182,4.0678825h-1.4957428l-1.7584457-2.8607254l-1.7585449,2.8607254h-1.4988403l2.5144043-4.0678825l-2.3651733-3.852726
	h1.4859543l1.6222,2.632679l1.6222-2.632679h1.4957428L86.7680283,51.0988426z M94.3179474,55.3143616
	c-0.5504913,0.0162849-1.098587-0.0785103-1.6109161-0.2785912c-0.5122375-0.1999741-0.9780121-0.5011406-1.3689804-0.8849144
	c-0.3908615-0.383873-0.698822-0.8424644-0.9049911-1.347805c-0.2060699-0.5054398-0.3061676-1.0469398-0.2939835-1.591835
	c-0.0093842-0.5440979,0.0925064-1.0844955,0.299675-1.5885353c0.2070694-0.5041389,0.5151291-0.9616318,0.9054947-1.3449097
	c0.3903656-0.3832741,0.8550491-0.6845398,1.3660812-0.8855171c0.5109329-0.2009773,1.0578308-0.2976723,1.6076202-0.2841873
	c0.7013245-0.0050926,1.3921509,0.1697159,2.0049744,0.5072403c0.5955353,0.3232422,1.0911865,0.8004112,1.4341049,1.3805656
	l-1.1420364,0.6421928c-0.213356-0.3926659-0.5366974-0.7159081-0.93116-0.9310722
	c-0.4163437-0.2332382-0.887619-0.3528061-1.3658829-0.3468132c-0.7607574,0-1.4902496,0.2990685-2.0280457,0.8312759
	c-0.5379105,0.5323143-0.8400726,1.2542114-0.8400726,2.0068779c0,0.7527618,0.3021622,1.4746628,0.8400726,2.0069695
	c0.537796,0.5322113,1.2672882,0.8312798,2.0280457,0.8312798c0.4802628,0.0056915,0.9536362-0.1139755,1.3723755-0.346817
	c0.3944626-0.2129631,0.7163086-0.5370026,0.9246674-0.9310646l1.1420364,0.6421852
	c-0.3401184,0.5825539-0.8334732,1.0630226-1.4276123,1.3901596C95.7169876,55.1372604,95.023262,55.3177567,94.3179474,55.3143616z
	 M100.8520889,47.2558022v6.6684036h3.2444v1.2425194h-4.5582428v-7.910923H100.8520889z M105.58284,52.5436363v-5.2878342
	h1.2975616v5.2107239c-0.0109863,0.2128601,0.0229797,0.4256248,0.0988922,0.6250038
	c0.0759201,0.1994781,0.1917877,0.3812752,0.3426208,0.534111c0.3665924,0.2746925,0.8130951,0.4234238,1.2735901,0.4234238
	c0.4594879,0,0.9069901-0.1487312,1.272583-0.4234238c0.1508331-0.1528358,0.2667084-0.3346329,0.3426208-0.534111
	c0.0759125-0.199379,0.1098785-0.4121437,0.0988922-0.6250038v-5.2107239h1.2975616v5.2878342
	c0.0159836,0.3778801-0.0509491,0.7546654-0.196785,1.1043777c-0.1458359,0.3497086-0.3665924,0.6640625-0.6462784,0.9214745
	c-0.6203156,0.4816666-1.3844681,0.7447739-2.1725922,0.747673c-0.7881317,0.0028954-1.555275-0.2546158-2.1785889-0.7315903
	c-0.279686-0.2604103-0.4984436-0.5778542-0.6422806-0.9304657C105.6268005,53.3024979,105.5628662,52.9232178,105.58284,52.5436363
	z M116.4997253,55.3143616c-0.6852341,0.0191803-1.3614883-0.1593208-1.9458389-0.5137291
	c-0.5304031-0.3344269-0.9269714-0.8404655-1.1227493-1.4319115l1.128746-0.642086
	c0.3226471,0.8904114,0.9849014,1.3356209,1.9887924,1.3356209c0.3895721,0.0255699,0.7781372-0.0735207,1.1067734-0.282589
	c0.1198654-0.0863037,0.2177582-0.2004776,0.2826843-0.332531c0.0659332-0.1320534,0.0978928-0.2779922,0.0939026-0.4251289
	c0.0049896-0.1465378-0.0289688-0.2917747-0.0998917-0.421032c-0.069931-0.129158-0.1728134-0.2375374-0.2996674-0.3141518
	c-0.4445114-0.2482262-0.9199753-0.4381104-1.4144363-0.5650749c-0.5923386-0.1598206-1.1587143-0.4030495-1.6811295-0.7223969
	c-0.255722-0.1806984-0.4614868-0.4227295-0.5973358-0.7035217c-0.1348572-0.2807846-0.196785-0.5911407-0.177803-0.9017944
	c-0.0139847-0.3156548,0.0469437-0.6301041,0.177803-0.9182816c0.1308517-0.2881851,0.3276291-0.542202,0.5753555-0.741581
	c0.5084381-0.4194336,1.1547165-0.6408844,1.8169861-0.6229057c0.5863495-0.0160828,1.1647034,0.1407433,1.6601563,0.4505959
	c0.4964523,0.3098564,0.8890152,0.7587624,1.1267548,1.2895699l-1.1097717,0.6420898
	c-0.1258621-0.3358269-0.3566055-0.6238098-0.6572647-0.8226852c-0.3016739-0.1988792-0.6582794-0.2985687-1.0198746-0.2849846
	c-0.3266373-0.0154839-0.6492844,0.0784111-0.9149857,0.2665024c-0.1078796,0.0860062-0.1937866,0.1960831-0.2497253,0.3210449
	c-0.0569305,0.1249619-0.0819092,0.2614098-0.074913,0.398159c-0.0069962,0.1329498,0.0199738,0.2654037,0.0759125,0.3861732
	c0.0569382,0.1207657,0.1418457,0.2261467,0.2487259,0.3072548c0.3915634,0.2424316,0.8200912,0.4232292,1.2685928,0.5362053
	l0.6482773,0.2279472c0.1008911,0.0289688,0.2986755,0.1059837,0.5943451,0.2247543
	c0.2077713,0.0810051,0.4045486,0.1889877,0.5833511,0.3210411c0.2677078,0.1774025,0.4844589,0.4208336,0.6283112,0.7063179
	c0.143837,0.2853813,0.210762,0.6030273,0.1927719,0.9214783c0.0129929,0.3254356-0.0519333,0.6492767-0.1887817,0.9454498
	c-0.1368484,0.2961693-0.3426208,0.556282-0.5993347,0.7593575
	C117.9571152,55.1427536,117.2329178,55.3577156,116.4997253,55.3143616z M121.1036224,55.1667252v-7.910923h1.3145447v7.910923
	H121.1036224z M128.3226013,55.1667252h-1.5762405l-2.7739182-7.910923h1.4374084l2.1246414,6.3408661l2.1346359-6.3408661
	h1.4274139L128.3226013,55.1667252z M133.9653473,51.7891769v2.1350288h3.5390778v1.2425194h-4.8665924v-7.910923h4.7986755
	v1.229641h-3.4711609v2.0580139h3.1984558v1.2328339L133.9653473,51.7891769z M144.2699127,47.2558022v6.6684036h3.2444v1.2425194
	h-4.5589447v-7.910923H144.2699127z M148.9966736,52.5436363v-5.2878342h1.3135529v5.2107239
	c-0.0110016,0.2129631,0.0219574,0.4259262,0.0978699,0.6255035c0.0759277,0.1994781,0.1927948,0.381176,0.3436279,0.5336113
	c0.3665924,0.2746925,0.8140869,0.4234238,1.2735901,0.4234238c0.4594879,0,0.9069977-0.1487312,1.2735748-0.4234238
	c0.1498413-0.1531334,0.2657166-0.3350334,0.3406219-0.5344124c0.0759277-0.1994781,0.108902-0.4120407,0.0968933-0.6247025
	v-5.2107239h1.3145599v5.2878342c0.016983,0.3807793-0.0489655,0.7608566-0.1958008,1.1134644
	c-0.1458282,0.3527107-0.368576,0.6695595-0.6512756,0.9284706c-0.6222992,0.4827652-1.3894653,0.7450752-2.1805725,0.7450752
	c-0.7901306,0-1.5582733-0.26231-2.1795959-0.7450752c-0.2826691-0.2589111-0.5054321-0.5757599-0.6512604-0.9284706
	C149.0456238,53.304493,148.9786835,52.9244156,148.9966736,52.5436363z M160.5208893,51.0988426l2.5052185,4.0678825h-1.4993439
	l-1.7590332-2.8607254l-1.7680511,2.8607254h-1.4953461l2.5112305-4.0678825l-2.3653717-3.852726h1.4863281l1.6222076,2.632679
	l1.6222076-2.632679h1.4953461L160.5208893,51.0988426z M164.4984741,52.5436363v-5.2878342h1.3145294v5.2107239
	c-0.0119781,0.2126617,0.0209961,0.4252243,0.0968933,0.6247025c0.0749359,0.199379,0.1907959,0.381279,0.3406219,0.5344124
	c0.3666077,0.2746925,0.8141022,0.4234238,1.2736053,0.4234238c0.4594727,0,0.9069824-0.1487312,1.2735748-0.4234238
	c0.149826-0.1528358,0.2667084-0.3346329,0.3426208-0.534111c0.0759277-0.199379,0.1088715-0.4121437,0.0988922-0.6250038
	v-5.2107239h1.3135529v5.2878342c0.0149689,0.3781815-0.0529633,0.7550659-0.1987915,1.1047745
	c-0.1468353,0.3497124-0.3675842,0.6639671-0.6482849,0.9210777c-0.6223145,0.4824677-1.3904572,0.7445793-2.1815643,0.7445793
	c-0.7911377,0-1.5592804-0.2621117-2.1815948-0.7445793c-0.2826843-0.2565117-0.5044403-0.5704651-0.6512756-0.9202766
	c-0.1478271-0.3497124-0.2167511-0.7268944-0.2027588-1.1055756H164.4984741z M178.7646332,55.1667252H177.32724
	l-1.6901245-2.8895912H174.08284v2.8895912h-1.2975616v-7.910923h3.1984558c0.6812286,0,1.3355103,0.2679062,1.8169708,0.7447777
	c0.4824677,0.4767685,0.7531738,1.1235542,0.7531738,1.7980042c0.0029907,0.4956512-0.1508331,0.9798126-0.4415131,1.3837624
	c-0.2806854,0.4104462-0.6802521,0.728096-1.1457367,0.9117889L178.7646332,55.1667252z M175.9547577,48.4854431h-1.884903
	v2.6455612h1.884903c0.1678162,0.0023003,0.3336182-0.0308647,0.4864502-0.09729
	c0.1538391-0.0664253,0.2906799-0.1647186,0.4025574-0.2879829c0.2357483-0.2565117,0.3665924-0.5908432,0.3665924-0.9375572
	s-0.1308441-0.6809464-0.3665924-0.937458c-0.1118774-0.1233635-0.2487183-0.2215576-0.4025574-0.2880821
	C176.2883759,48.5162086,176.1225739,48.4830475,175.9547577,48.4854431z M184.8738556,47.2653961h1.4983368l-2.7868958,4.7517281
	v3.1399117h-1.3135529v-3.1399117l-2.7868958-4.7710075h1.4953308l1.9468536,3.5028114L184.8738556,47.2653961z
	 M191.476532,55.1763191v-7.920517h1.3135376v7.910923L191.476532,55.1763191z M199.8822174,52.6335373v-5.3777351h1.2985535
	v7.910923h-1.0028992l-3.7668152-5.3681412v5.3681412h-1.3145294v-7.910923h1.0288544L199.8822174,52.6335373z
	 M202.8639069,47.2653961h5.8405151v1.220047h-2.2644806v6.6683998h-1.2985687v-6.6683998h-2.2704926L202.8639069,47.2653961z
	 M211.6731262,51.7987633v2.1350327h3.5390778v1.2425232h-4.8666077v-7.920517h4.7956848v1.229641h-3.4681549v2.0580139h3.1954498
	v1.2328339L211.6731262,51.7987633z M223.1064453,55.1763191h-1.4403992l-1.6901245-2.8894958h-1.5542755v2.8894958h-1.3145447
	v-7.920517h3.1864471c0.3386383-0.0068893,0.6742554,0.0558395,0.9869232,0.1839981
	c0.3126526,0.1282616,0.5953217,0.3191452,0.8300629,0.5607796c0.4225464,0.4084473,0.6862488,0.950943,0.7461853,1.5326004
	c0.0589294,0.5816536-0.0898895,1.1654053-0.421524,1.6491661c-0.2837067,0.4098473-0.6832581,0.7271957-1.1487427,0.9117889
	L223.1064453,55.1763191z M220.2935486,48.4854431h-1.8848877v2.6455612h1.8848877
	c0.1678162,0.0023994,0.3346405-0.0307655,0.4884644-0.0971909c0.1538391-0.0664253,0.291687-0.1647186,0.4035645-0.2880821
	c0.2337341-0.257515,0.3625946-0.5914421,0.3625946-0.9375572s-0.1288605-0.6799469-0.3625946-0.937458
	c-0.1118774-0.1234627-0.2497253-0.2216568-0.4035645-0.2881813
	C220.6281891,48.5161095,220.4613647,48.4830475,220.2935486,48.4854431z M224.7935638,55.1763191v-7.920517h1.3395233v7.910923
	L224.7935638,55.1763191z M235.085144,54.1360703c-0.3795776,0.3844719-0.8340759,0.6881371-1.3365173,0.8924141
	c-0.5014496,0.2042694-1.0408325,0.3048592-1.5842438,0.2955704c-1.0987701,0-2.153595-0.4323235-2.9317474-1.20187
	c-0.7771301-0.7694435-1.2146454-1.8130836-1.2146454-2.9012794c0-1.0882912,0.4375153-2.1319351,1.2146454-2.9013786
	c0.7781525-0.7695465,1.8329773-1.2018661,2.9317474-1.2018661c0.8200989,0.0056915,1.6192017,0.2506218,2.2974548,0.7041168
	c0.679245,0.4533958,1.2076569,1.0951843,1.5203247,1.8448524c0.3116455,0.7495689,0.3925476,1.5736542,0.2337341,2.3687706
	C236.0560608,52.8305206,235.6625061,53.561306,235.085144,54.1360703z M230.1276398,53.2563477
	c0.2657166,0.2605095,0.5813599,0.465683,0.9279785,0.6035309c0.3476257,0.1378441,0.7192078,0.205574,1.0927887,0.1991806
	c0.3725891,0.0085869,0.7441711-0.0581398,1.0897827-0.1961823c0.3456268-0.1379471,0.6592712-0.3443184,0.9219818-0.6065292
	c0.2706909-0.2656059,0.4834747-0.583252,0.6253204-0.9332619c0.1418304-0.3501167,0.2087555-0.7252007,0.198761-1.1021805
	c0.0109863-0.3751831-0.0569305-0.7485695-0.198761-1.0965843c-0.1418457-0.348114-0.3546295-0.6633606-0.6253204-0.9261742
	c-0.2607117-0.2658005-0.5733643-0.4754677-0.9199829-0.6158104c-0.3456116-0.1403503-0.7171936-0.208374-1.0917816-0.1996803
	c-0.3765717-0.0052948-0.7501678,0.0647278-1.0987854,0.2059708c-0.3476105,0.1411438-0.6642456,0.3506126-0.9289551,0.6157188
	c-0.2637177,0.2651062-0.4714813,0.5803528-0.6103363,0.9268684c-0.1378479,0.3465157-0.2037659,0.717205-0.1937866,1.0896912
	c-0.0059814,0.3748856,0.0639343,0.7471733,0.2057648,1.095089c0.1408539,0.3478088,0.3516235,0.664257,0.6183167,0.9307632
	L230.1276398,53.2563477z M244.1890564,55.1827126h-1.4374237l-1.6901245-2.8894958h-1.5542755v2.8894958h-1.2975464v-7.9269104
	h3.1984406c0.6812439,0.0017014,1.3335266,0.2701035,1.8149872,0.7465744
	c0.4814758,0.4765739,0.7531586,1.1223564,0.7551575,1.7962074c0.0020142,0.4954529-0.152832,0.9791145-0.4414978,1.3837624
	c-0.2816925,0.4112473-0.682251,0.7289925-1.1487274,0.9117889L244.1890564,55.1827126z M241.4051361,48.4854431h-1.8849182
	v2.6455612h1.8849182c0.1668091,0.0021019,0.3336334-0.0311661,0.4864655-0.0975876
	c0.1538239-0.0664291,0.2906799-0.1645203,0.4025574-0.2876854c0.2357178-0.2565117,0.3665771-0.5908432,0.3665771-0.9375572
	s-0.1308594-0.6809464-0.3665771-0.937458c-0.1118774-0.1232643-0.2487335-0.2213554-0.4025574-0.2877846
	C241.7387695,48.5165062,241.5719452,48.483242,241.4051361,48.4854431z M249.4542084,47.2653961h3.1445007
	c0.510437-0.0133858,1.017868,0.0814095,1.4883575,0.2779922c0.4704742,0.1965828,0.8930054,0.4903526,1.239624,0.8617401
	c0.7062073,0.7716484,1.0968018,1.7751312,1.0968018,2.8157768c0,1.0405426-0.3905945,2.0440331-1.0968018,2.8156776
	c-0.3466187,0.3712845-0.7691498,0.6651611-1.239624,0.8617401c-0.4704895,0.1965828-0.9779205,0.2913818-1.4883575,0.2779961
	h-3.1445007V47.2653961z M250.7527618,53.9337959h1.8289642c0.3446198,0.0112877,0.6872406-0.0515442,1.0048828-0.1839943
	c0.3176575-0.1324539,0.6023407-0.3314323,0.835083-0.5833549c0.4634857-0.5440979,0.7172089-1.2326317,0.7172089-1.943943
	c0-0.7114067-0.2537231-1.3999443-0.7172089-1.9440422c-0.2317352-0.2529182-0.5164337-0.4528961-0.8340759-0.5859489
	c-0.3176575-0.1331558-0.6602783-0.1960831-1.0058899-0.184597h-1.8289642V53.9337959z M259.6159058,51.7987633v2.1350327h3.5430908
	v1.2425232h-4.8665771v-7.920517h4.8276062v1.229641h-3.4880981v2.0580139h3.1994324v1.2328339L259.6159058,51.7987633z
	 M267.7269287,55.3304482c-0.6852417,0.0198746-1.3614807-0.1586266-1.9458618-0.5137329
	c-0.5313721-0.3343315-0.9289551-0.8402672-1.1267395-1.4319077l1.1297607-0.6420937
	c0.3196411,0.8904152,0.9828796,1.3356209,1.9888,1.3356209c0.390564,0.025074,0.7791443-0.0739174,1.1097717-0.2825851
	c0.1198425-0.0867043,0.2167664-0.2009773,0.2816772-0.3329315c0.065918-0.1319542,0.0979004-0.2777901,0.0939026-0.4247284
	c0.0059814-0.1465378-0.0289612-0.2918777-0.0989075-0.421032c-0.0699158-0.129158-0.1737976-0.2376366-0.2996826-0.3142548
	c-0.4464722-0.2624054-0.9249573-0.4663811-1.424408-0.606823c-0.5923157-0.1597252-1.1587219-0.4029541-1.6801453-0.7223015
	c-0.2566833-0.1806946-0.4624634-0.4227295-0.5973206-0.7035179c-0.1358337-0.2807884-0.1977844-0.5911407-0.1788025-0.9017982
	c-0.0139771-0.3156509,0.0469666-0.6301041,0.1777954-0.9182816c0.1308594-0.2881813,0.3276367-0.5421982,0.5753784-0.7415771
	c0.5084534-0.4192352,1.1547241-0.6405907,1.8169861-0.6229095c0.5863647-0.0160789,1.1647034,0.1407433,1.6601563,0.4505997
	c0.49646,0.3098564,0.8890076,0.7587585,1.1267395,1.2895699l-1.1067505,0.642086
	c-0.1268616-0.3358231-0.357605-0.6236076-0.6592712-0.8223877c-0.3016663-0.1987762-0.6592712-0.2985687-1.020874-0.2852821
	c-0.3256531-0.0160828-0.6472778,0.0779152-0.9119873,0.2665062c-0.1118774,0.0836029-0.2008057,0.1926842-0.2607117,0.3178444
	c-0.0599365,0.1252632-0.0888977,0.2629089-0.0829163,0.4013596c-0.0049744,0.1346474,0.0239868,0.2683983,0.0839233,0.3893623
	c0.059906,0.1209679,0.1488037,0.2254524,0.2597046,0.3040657c0.390564,0.2431297,0.8180847,0.4241257,1.2655945,0.5362053
	c0.3825684,0.1284561,0.603302,0.205471,0.6482849,0.2279472c0.045929,0.0224724,0.2986755,0.1059837,0.5973206,0.2247467
	c0.2077637,0.0802155,0.4025574,0.1882935,0.5803833,0.3210487c0.2746887,0.1741028,0.4974365,0.4163361,0.6472473,0.7026176
	c0.1498413,0.2861824,0.2207642,0.6064262,0.2067871,0.9283676c0.0119629,0.3254433-0.0519409,0.6492844-0.1887817,0.9454536
	s-0.3426208,0.5562859-0.6003723,0.7593536c-0.5883179,0.4458084-1.319519,0.6689606-2.0596924,0.629303L267.7269287,55.3304482z
	 M272.3278198,55.1827126v-7.9269104h1.3145447v7.910923L272.3278198,55.1827126z M279.7186279,51.0924454h4.00354v0.5426025
	c0.0179749,0.4948502-0.0698853,0.9878998-0.2567139,1.4473953c-0.1867981,0.4594879-0.4684753,0.8752251-0.8270874,1.2205429
	c-0.3795776,0.3484116-0.8250732,0.6186142-1.3115234,0.7950172c-0.4864502,0.1763039-1.0028687,0.2553177-1.5203247,0.2324448
	c-0.5653687,0.018074-1.1287537-0.077919-1.6551514-0.2821884c-0.5263977-0.204174-1.0058899-0.5124321-1.4074402-0.9057961
	c-0.7661438-0.7791367-1.1946716-1.8232765-1.1946716-2.9103699s0.4285278-2.1312332,1.1946716-2.9103737
	c0.3895874-0.3910637,0.8570557-0.6990204,1.3714905-0.9049911c0.5154114-0.2058716,1.0678101-0.3054619,1.6231995-0.2925758
	c0.7111816-0.0069923,1.4124146,0.1666107,2.0367432,0.5040398c0.6003113,0.3156471,1.100769,0.7903214,1.4443665,1.3708763
	l-1.1297302,0.6421928c-0.2187805-0.3894691-0.5484009-0.7074203-0.9469604-0.9150887
	c-0.4315186-0.2281456-0.914978-0.3452187-1.4044189-0.3403206c-0.3835754-0.0123901-0.7651672,0.0536385-1.1217651,0.193882
	c-0.3555908,0.1403465-0.6792603,0.3520126-0.9489441,0.6216125c-0.2657166,0.2683983-0.4744873,0.5868492-0.6133423,0.9364586
	c-0.1398621,0.3496132-0.2067566,0.7234001-0.1977539,1.0990791c-0.0100098,0.3739891,0.0559387,0.746273,0.1957397,1.0939865
	c0.138855,0.3477173,0.3486633,0.663765,0.6153564,0.9286728c0.2866821,0.2685013,0.623291,0.4778671,0.9928894,0.6156158
	c0.3685913,0.1378479,0.7611389,0.2014771,1.1557312,0.1870956c0.6133118,0.0247688,1.2176514-0.1463394,1.7260742-0.48806
	c0.443512-0.3180504,0.749176-0.7906227,0.8560486-1.3227348h-2.6730347L279.7186279,51.0924454z M290.4257202,52.6399307
	v-5.3841286h1.2975769v7.910923h-1.0248718l-3.7638245-5.3681412v5.3681412h-1.2975464v-7.910923h1.0278625L290.4257202,52.6399307z
	"/>
<path fill="#FFFFFF" d="M121.1435776,8.0595579h-1.4244232l-0.5573807-1.6053786h-3.3972321l-0.5613708,1.6053786h-1.4274139
	l2.9007797-7.9113116h1.5762558L121.1435776,8.0595579z M117.4646606,1.6733543l-1.2685928,3.5735846h2.5501709
	L117.4646606,1.6733543z M139.3613739,5.526269V0.1482465h1.2975464v7.9113116h-1.0288544l-3.7528381-5.3683929v5.3683929
	h-1.3145294V0.1482465h1.0288544L139.3613739,5.526269z M158.6199951,3.9786861h3.9975739v0.542618
	c0.0169678,0.4949207-0.069931,0.9879737-0.2567291,1.4474735c-0.1867828,0.4595003-0.4684753,0.8752894-0.8270874,1.2206659
	c-0.3795776,0.3483629-0.8260803,0.6185832-1.3115387,0.7949681c-0.4864655,0.176374-1.0038757,0.2553964-1.5203094,0.2324719
	c-0.5653839,0.0180998-1.1287537-0.0779037-1.6551666-0.2821369c-0.526413-0.2042437-1.0058746-0.5124516-1.408432-0.9058452
	c-0.390564-0.3790889-0.6982269-0.8333349-0.9049988-1.3347392c-0.2057648-0.5013933-0.3066559-1.0393262-0.2946777-1.580626
	c-0.0089874-0.537034,0.0939026-1.0701325,0.2996826-1.5668812c0.2067719-0.4967589,0.5124207-0.9468093,0.8999939-1.3228022
	c0.3885651-0.3952914,0.8540497-0.7077746,1.3684845-0.9181722c0.5144196-0.2103945,1.066803-0.3142403,1.6231995-0.3051284
	c0.712204-0.0073389,1.4154358,0.1662136,2.0407257,0.5040886c0.6003418,0.3156797,1.1007843,0.7903529,1.4434052,1.3709986
	l-1.1287537,0.6421475c-0.2197571-0.3898075-0.5503845-0.7069654-0.950943-0.9118582
	c-0.4315186-0.2291456-0.914978-0.3462458-1.4044342-0.3403423c-0.3825836-0.0121965-0.7641602,0.0539402-1.1197662,0.1942744
	s-0.6772461,0.3518397-0.9469452,0.6212605c-0.2657166,0.2683623-0.4744873,0.5867989-0.6143188,0.936451
	c-0.1388397,0.3496621-0.20578,0.7234273-0.1967773,1.0991704c-0.0109863,0.3740048,0.0559387,0.746242,0.1947784,1.0940161
	c0.1398315,0.347764,0.3496094,0.6637836,0.6163177,0.9287696c0.285675,0.2685018,0.6233063,0.4778094,0.9918976,0.6156363
	c0.3695984,0.1378374,0.762146,0.201427,1.1557159,0.1870527c0.613327,0.0247426,1.2186432-0.1463575,1.7260895-0.4880385
	c0.4425049-0.3165288,0.749176-0.7865872,0.8570557-1.3164091h-2.6740417V3.9786861z M177.6948242,4.6914754v2.1351509h3.5420837
	v1.2329316h-4.8666229V0.1482465h4.7986908v1.2425612h-3.4741516V3.448904h3.1984558v1.2329321L177.6948242,4.6914754z
	 M196.3141632,0.1482465v6.6687508h3.2444v1.2425609h-4.5679321V0.1482465H196.3141632z M213.104538,8.0595579V0.1482465h1.2975616
	v7.9113116H213.104538z M231.2733765,4.0011611l3.3382874,4.0583968h-1.5632477l-3.1535187-3.7630043v3.7630043h-1.3145294
	V0.1482465h1.3145294v3.531841l3.0556183-3.531841h1.5642548L231.2733765,4.0011611z M254.8312378,8.0595579h-1.4174194
	l-0.5583801-1.6053786h-3.4032288l-0.5613708,1.6053786h-1.4274139l2.8997803-7.9113116h1.57724L254.8312378,8.0595579z
	 M251.1523132,1.6733543l-1.2685852,3.5735846h2.5331879L251.1523132,1.6733543z M76.6395645,37.9549255v-0.5425949h2.6474609
	V17.2295227h-2.6474609v-0.5330086h11.6605606c5.5890961,0,8.3836899,1.8901024,8.3836899,5.670208
	c0,1.7916126-0.8381653,3.2460995-2.5145035,4.3633595c-1.676239,1.1173592-3.7581329,1.6760406-6.2455673,1.6760406
	c-1.4794617,0-2.6571579-0.0384579-3.5266953-0.1187687v9.1217804h3.2444077v0.5425949L76.6395645,37.9549255z
	 M84.3808746,17.2327194v10.4798717c0.4500961,0.1017876,0.9105835,0.1524315,1.3723679,0.1509304
	c1.9141846,0,3.3017426-0.4281216,4.16259-1.2842731c0.8608475-0.8562489,1.2934647-2.1951637,1.2978592-4.0166435
	c0-2.012167-0.2725983-3.4034233-0.8176956-4.1740665c-0.5449982-0.770546-1.6665497-1.1537209-3.3644714-1.1494274
	L84.3808746,17.2327194z M98.4227905,37.9549255v-0.5425949h2.6470642V17.2295227h-2.6470642v-0.5330086h10.2656097
	c6.2720337,0,9.4085541,1.6610584,9.4085541,4.9830704c0.0149841,0.8212891-0.2367325,1.6256962-0.7172012,2.2957516
	c-0.4904556,0.6733551-1.1487198,1.2097607-1.910881,1.5571747c-0.7781296,0.3670921-1.5932312,0.6502762-2.4332962,0.8444614
	c-0.8580475,0.196682-1.7320786,0.3234425-2.6111069,0.3788815v0.0609303
	c4.7447357,0.3831768,7.1500702,2.1651993,7.2149963,5.3459702c-0.0059891,1.161911,0.0709229,2.3228226,0.2307434,3.4740448
	c0.1298523,0.744873,0.3246384,1.2168465,0.5384064,1.4191246c0.3046646,0.2254524,0.6822433,0.3328323,1.0608215,0.3018684
	c0.4215317-0.0239754,0.8280792-0.1592255,1.1776886-0.3917656l0.2277527,0.4526939
	c-1.0018921,0.6828423-2.3304138,1.0253639-3.984581,1.027462c-1.6551666,0.0021935-2.7869034-0.4762726-3.3972244-1.4352112
	c-0.6313019-0.9568367-0.9469604-2.3480949-0.9469604-4.1739655c0-1.6118126-0.1638107-2.8201714-0.490448-3.624979
	c-0.1138763-0.3466148-0.2976685-0.6672592-0.5384064-0.9429531c-0.2417297-0.2755947-0.5354004-0.500845-0.8660355-0.662365
	c-0.8800278-0.3058605-1.8089981-0.4485016-2.7419586-0.4206333h-1.7320786v10.2391376h2.744957v0.5425987L98.4227905,37.9549255z
	 M106.1641998,17.2327194v9.3914776h1.8299713c1.8489456-0.0792103,3.0895691-0.5073357,3.7208633-1.2843723
	c0.6323013-0.7769375,0.9259796-2.1158524,0.8830261-4.0166454c0.0199738-0.7471695-0.0559387-1.4938412-0.2277451-2.2218323
	c-0.110878-0.48876-0.3875732-0.9250755-0.7851334-1.2361298c-0.3556061-0.2654057-0.7681427-0.4456062-1.2066574-0.526516
	c-0.6053314-0.0930977-1.2176514-0.1339512-1.8299713-0.1220646L106.1641998,17.2327194z M121.0556793,17.2327194v-0.5362053
	h10.2885895v0.5425968h-2.6440735v13.292551c0,2.1940651,0.4025574,3.8806953,1.2066498,5.0601845
	c0.8051147,1.1793938,2.3084412,1.7680397,4.5099945,1.7659454c0.768158,0.0231705,1.5333099-0.1051865,2.2505188-0.3774872
	c0.7172089-0.2722931,1.372467-0.6831398,1.9278412-1.2086563c1.109787-1.0553284,1.6651611-2.5600586,1.6651611-4.5143909
	V19.7692051c0-0.9075947-0.1638184-1.557272-0.490448-1.9489384c-0.3246307-0.3916645-0.8920135-0.590744-1.6971283-0.590744
	h-0.9469452v-0.5330086h6.4658356v0.5425968h-0.8370819c-1.1327362,0-1.7001038,0.8465633-1.7001038,2.5396843v11.2858753
	c0,2.3138313-0.7072144,4.1215248-2.1216431,5.4229851c-1.4144287,1.3013535-3.5770416,1.9510345-6.4888,1.9489365
	c-2.6800232,0-4.8186646-0.675354-6.4178848-2.0260544c-1.5982285-1.3506012-2.4023361-3.1828651-2.4133224-5.4967995V17.2295227
	L121.0556793,17.2327194z M145.2598267,37.9549255v-0.5425949h2.6440582V17.2295227h-2.6440582v-0.5330086h11.2674866
	c3.4611664,0,6.2590485,0.9718227,8.393692,2.9153652c2.1346283,1.9435425,3.2014465,4.5667324,3.1994476,7.8695679
	c-0.0029907,0.8660393-0.1118622,1.7285824-0.324646,2.5686493c-0.2546997,0.9665279-0.6392822,1.8950977-1.1427307,2.7612362
	c-0.5433807,0.9587364-1.2376251,1.8258743-2.0567017,2.5685501c-0.956955,0.8302765-2.0737152,1.46138-3.283371,1.8558426
	c-1.4753571,0.5029411-3.0276337,0.7484665-4.5879059,0.7255936L145.2598267,37.9549255z M152.9972382,17.2327194v20.1796112
	h2.7129822c0.9269714,0.0155792,1.8509369-0.1066818,2.7409668-0.3628006
	c0.7231903-0.2045708,1.3814545-0.5892448,1.9118805-1.1173592c0.473465-0.4794693,0.8800201-1.0193672,1.2096558-1.6054192
	c0.3466034-0.6691551,0.5833435-1.3888588,0.7012177-2.1319351c0.1438446-0.779335,0.2417297-1.5661602,0.2946625-2.3566837
	c0.0409546-0.7213001,0.0629425-1.5968285,0.0649261-2.6263847c0-1.0873947-0.0209656-2.008873-0.0649261-2.7644329
	c-0.0499268-0.7950191-0.1478271-1.58634-0.2946625-2.3695717c-0.1148682-0.7099133-0.3396301-1.3977489-0.6682587-2.0388393
	c-0.3046722-0.5470905-0.6892395-1.0459385-1.1427307-1.4801559c-0.5024414-0.4714775-1.1137695-0.8142967-1.7810211-0.9985905
	c-0.8290863-0.2272491-1.6871338-0.3353291-2.5471802-0.3210468L152.9972382,17.2327194z M170.0473022,37.9549255v-0.5425949
	h0.5873718c0.5194092,0.0298653,1.0308533-0.1313553,1.4373932-0.4527016
	c0.3456116-0.3018646,0.5204163-0.8765259,0.5224152-1.7241859V19.011446l-1.4373932-1.7819233h-1.0128937v-0.5330086h6.7295532
	l12.3283081,14.6506443h0.0649414V18.9440193c0-1.1494236-0.7391968-1.7241859-2.2185516-1.7241859h-0.6233063v-0.5233192h6.1641541
	v0.5425968h-0.457489c-0.5623779-0.0375576-1.1187439,0.1419449-1.5502777,0.500845
	c-0.1658173,0.1394463-0.3006592,0.3124542-0.3935547,0.5073376c-0.0929108,0.1949825-0.1418457,0.4073486-0.1448517,0.6229076
	v19.4540138h-1.3794556l-15.2191315-18.3656197h-0.0649109v15.4373703c0,0.8262825,0.1847992,1.3688812,0.5543823,1.6278954
	c0.3695831,0.2590103,1.033844,0.390564,1.9917908,0.3948593h0.2956696v0.5425987L170.0473022,37.9549255z M194.280426,37.9549255
	v-0.5425949h2.6570587V17.2295227h-2.6440735v-0.5330086h10.3814697v0.5425968h-2.6440582v20.1796093h2.6440582v0.5425987
	L194.280426,37.9549255z M207.0172882,37.9549255v-0.5425949h2.6450806V17.2295227h-2.6450806v-0.5330086h10.7071228v0.5425968
	h-2.9717102v9.3850861l7.461731-6.8870564c0.9739227-0.8637409,1.4703674-1.480257,1.4703674-1.8430557
	c0-0.4430084-0.5683746-0.6645622-1.6971283-0.6645622h-0.590332v-0.5330086h8.3607178v0.5425968h-0.8470612
	c-1.8529358,0-3.6389618,0.7759399-5.3560638,2.3278179l-4.6717987,4.2895412l9.6352997,13.5622501h2.3523865v0.5425987H219.917984
	v-0.5425987h2.5501556l-7.2189789-10.3706913l-0.4904633,0.4238281v9.9533558h2.7779236v0.5425987L207.0172882,37.9549255z
	 M230.2415161,27.3241215c-0.0569305-2.8873959,0.9929047-5.6890869,2.939743-7.8406982
	c0.9399567-1.0318565,2.0886841-1.8568401,3.3712616-2.4215145c1.2825775-0.5646725,2.6710358-0.8564491,4.0744781-0.8564491
	s2.7919006,0.2917767,4.0744934,0.8564491c1.2825623,0.5646744,2.4312897,1.389658,3.3712463,2.4215145
	c1.9468384,2.1516113,2.9976654,4.9533024,2.939743,7.8406982c0.0649261,2.8575306-0.9369659,5.4261799-3.0046692,7.7058506
	c-2.0677185,2.2795715-4.5279846,3.4173088-7.3808136,3.4130135c-2.8548431,0-5.3151093-1.1376381-7.3807983-3.4130135
	c-2.0657196-2.2753754-3.0675964-4.8450241-3.0046844-7.7090473V27.3241215z M236.7722778,35.5372086
	c0.6972198,1.5668602,1.9817963,2.3502922,3.8547211,2.3502922s3.1564941-0.7855301,3.8507233-2.3566856
	c0.6972351-1.5689583,1.0458527-4.3067207,1.0488434-8.2130852c0.0149689-1.5905361-0.0779266-3.1802731-0.2796936-4.7584209
	c-0.1228638-1.0532303-0.357605-2.0906811-0.7002258-3.0951653c-0.2277527-0.657671-0.6093292-1.2528095-1.1127625-1.7369728
	c-0.3735809-0.3630962-0.8250732-0.6374931-1.3205261-0.8027096c-0.9759216-0.2398338-1.9967957-0.2398338-2.972702,0
	c-0.49646,0.1642189-0.9499512,0.4388123-1.3235474,0.8027096c-0.5034332,0.4835625-0.8840179,1.0790024-1.1097565,1.7369728
	c-0.3456268,1.0038853-0.5813599,2.0415344-0.7032166,3.0951653c-0.2007751,1.578249-0.2926788,3.167984-0.2767029,4.7584209
	c0,3.9063644,0.3486176,6.6451263,1.0448456,8.2162819V35.5372086z M250.357193,17.2359161v-0.539402h10.9758148v0.5425968
	h-3.1694641l6.0732422,15.0905552l4.8016968-12.0499287c0.2477112-0.6134186,0.3805542-1.2660942,0.3925781-1.9264622
	c0-0.7416763-0.5314331-1.1173592-1.5992432-1.1173592h-0.8500366v-0.539402h6.2390442v0.5425968h-0.5223999
	c-0.2667236,0.0029984-0.5294189,0.0617313-0.7721558,0.172411c-0.2417297,0.1106777-0.457489,0.2707977-0.6322937,0.4697781
	c-0.4155579,0.4281254-0.9269714,1.3987484-1.5352783,2.9121685l-7.1860352,17.6431236h-1.2975769l-8.5884705-21.1910858
	L250.357193,17.2359161z M270.9333801,37.9581223v-0.5425987h0.4255371
	c1.0438232-0.0792122,1.7840271-0.6838379,2.2185364-1.8140869l7.5795593-19.3929806h0.4894714l8.7602844,21.2070675H292v0.5425987
	h-9.7332153v-0.5425987h2.5951538l-2.3813782-6.2834263h-6.3199768l-1.5672607,4.2606716
	c-0.1298523,0.2860832-0.2077942,0.5925446-0.2307739,0.9053955c0,0.7449722,0.5224304,1.1173592,1.5672607,1.1173592h0.9150085
	v0.5425987H270.9333801z M276.4202576,30.5734158h5.8135681l-2.8418579-7.6448174h-0.0649109L276.4202576,30.5734158z"/>
<path opacity="0.8" fill="#FFFFFF" enable-background="new    " d="M62.0576401,0h-0.7818336v55.9185944h0.7818336V0z"/>
<path fill="#FFFFFF" d="M11.1432352,55.4611015h2.4791489v0.24403H2.9511952v-0.24403h2.4759126h2.6621761
	c0,0,14.8201952-44.3504868,14.9647341-44.7358627c0.0513439-0.1380463,0.1123772-0.2247505,0.2889805-0.2247505
	s0.2344398,0.0802116,0.2857838,0.2247505l3.3237114,8.9503698l3.9306393,10.5464954l-0.0577374,0.1316547
	c-0.7358837,1.6118126-1.8903027,2.9968758-3.3429909,4.0111504c-0.1509323,0.1027832-0.3211422,0.1990776-0.4592896,0.2922745
	c-1.8015022-4.894268-5.4816189-14.8755932-6.0725613-16.5616226l-9.8073187,29.6419067l-2.6589603,7.7236328H11.1432352z
	 M40.3051758,55.4611015l-4.4959106-11.6479759l-2.4116249-6.7055626c0.4638863-0.2597084,0.9130898-0.5448914,1.3455086-0.854248
	c2.0791931-1.47966,3.8025818-3.403923,5.045002-5.6329498c1.3488007-2.494133,2.1481171-5.2481766,2.3442001-8.0768394
	c0.2224503-2.479147,0.056736-4.9777756-0.4913559-7.4056826c-0.5378036-2.4515791-1.5812454-4.763813-3.0634995-6.7890759
	c-2.052124-2.7682886-4.7592201-4.6662722-7.9351959-5.9283819c-3.4863319-1.3357679-7.1914215-2.008867-10.9248791-1.9846878
	c-6.1239042-0.051384-13.3558197-0.028904-19.479784-0.028904c-0.0738601,0-0.150931,0.0160572-0.2376363,0.0224811v0.2761836
	h0.3211307c1.6056514,0,3.2113097,0,4.816958,0c0.2504821,0,0.3404021,0.073868,0.3211336,0.3211536
	C5.4474955,1.103107,5.4421215,1.1804512,5.4431705,1.2578353v48.3937149l5.7000647-17.2231941V1.0490869
	c0-0.3211437,0-0.3211437,0.3211441-0.3211437c2.0840874,0,5.276145,0,7.3603334,0
	c2.2126427-0.0290477,4.4175987,0.2663345,6.5446358,0.8767272c1.9129772,0.5530862,3.6886082,1.5016638,5.2119179,2.7843504
	c2.0809917,1.7759495,3.4201069,4.0303974,4.2806492,6.5963306c0.7324867,2.2876616,1.1484261,4.6648245,1.2364311,7.0652599
	c0.1575241,2.6027126,0.0575333,5.2145157-0.2986679,7.7974491c-0.2770958,2.093277-0.8704376,4.1322136-1.7598495,6.0471897
	c-0.4434052,0.922575-0.9815102,1.7965069-1.6056175,2.6078053c-0.1958809,0.256916-0.4046516,0.5073357-0.6166172,0.7482681
	l-0.0481453,0.0545387c-0.1958828,0.2151642-0.4013538,0.4239311-0.6101246,0.642292
	c-0.0385571,0.0353584-0.0738163,0.0739174-0.1091785,0.1091766c-0.1958828,0.1830978-0.3982582,0.3596992-0.606926,0.5331116
	l-0.154129,0.131649c-0.2537174,0.205574-0.5170269,0.4046555-0.7900238,0.5909462
	c-0.2119656,0.1445427-0.4303226,0.2793884-0.6422882,0.4110451c-0.2118626,0.1317558-0.3852711,0.2280464-0.5844517,0.3211441
	c-1.7958069,0.9658279-3.7562294,1.587738-5.7802849,1.8337631c-1.1817875,0.1574249-2.3796577,0.1958809-3.5710373,0.2793922
	c-0.1829967,0-0.3211441,0.0353622-0.2953739,0.2954712h0.2728996c3.2931442,0.009388,6.5715084-0.4414139,9.7398911-1.3391113
	l2.3860531,6.6316414c0,0,3.0025673,7.5566101,3.6930008,9.4096527c0.0288696,0.0802116,0.0513458,0.1669197,0.0867043,0.2857857
	h-5.9666786v0.2698021h17.3764191v-0.2793922L40.3051758,55.4611015z"/>
</svg>
