<svg version="1.1" xmlns="http://www.w3.org/2000/svg" xmlns:xlink="http://www.w3.org/1999/xlink" x="0px" y="0px"
	 viewBox="0 0 290 94.2475662" enable-background="new 0 0 290 94.2475662" xml:space="preserve">
<path fill="#FFFFFF" d="M46.0358086,25.6995506c0.1076546,0.8657818,0.0683479,1.7435246-0.1162415,2.5962219
	c-0.1906166,0.8943062-0.4343948,1.7764969-0.730011,2.6418686c-0.1308632,0.4682903-0.2587585,0.9323883-0.3902359,1.3971024
	c-1.8496971,5.5781746-3.8668556,11.1527252-6.0514221,16.7236443c-0.4687004,1.2650604-0.9478264,2.5405045-1.4373856,3.8261147
	c-0.0317421,0.066967-0.0490227,0.1395531-0.0505562,0.2136726c-0.0015831,0.0736122,0.0125809,0.1472206,0.0414581,0.21521
	c0.0263786,0.059803,0.0684471,0.1114311,0.1217651,0.1492615c0.0533142,0.0378265,0.1159363,0.060318,0.1811066,0.0659409
	c0.6938782,0.0828133,1.362648,0.3102875,1.9631805,0.6675987c0.6004829,0.3573112,1.1193275,0.8367996,1.5230026,1.4072723
	c0.0007172,0.0107384,0.0036316,0.0219803,0.0084877,0.0316963c0.0049057,0.0097084,0.0117569,0.0183983,0.0200386,0.0255547
	c0.0777473,0.1947632,0.1366882,0.3961639,0.1760483,0.602169c0.0546455,0.2392311,0.0658379,0.4866447,0.0330734,0.7299614
	c-0.0067444,0.1007042-0.0450363,0.1962967-0.1093407,0.2734795c-0.0643044,0.0776978-0.1513596,0.1323967-0.2488403,0.1574478
	c-0.1248817,0.0224876-0.195015-0.0204506-0.2125969-0.1206398c-0.0195808-0.1201286-0.027504-0.241787-0.0236702-0.3634491
	c-0.0073586-0.2975044-0.0592957-0.5924568-0.154171-0.8746262c-0.137764-0.3849144-0.4016342-0.7115593-0.7486725-0.927784
	c-0.7963638-0.4329681-1.6595917-0.729454-2.553894-0.877697c-0.1418037-0.0189133-0.2853432,0.0173798-0.4017868,0.100193
	c-0.1229897,0.0833206-0.2198067,0.1998672-0.2792053,0.3363533c-2.3720207,6.1540718-4.4286919,12.4252052-6.1619434,18.7888527
	l-0.0341988,0.0352707c-0.0306702,0.2428131-0.0741711,0.4840927-0.1302471,0.7222977
	c-0.1560631,0.6384583-0.2934685,1.3617859-0.4187069,2.1750565c-0.1226826,0.7151413-0.1489067,1.443573-0.0779533,2.1658707
	c0.0702362,0.6282349,0.3271027,1.0208206,0.7735653,1.1736603c0.0590916,0.0086899,0.1156788,0.0301666,0.1658249,0.0623703
	c0.0501461,0.0327148,0.0927277,0.0751343,0.1248817,0.1257401c0.0717697,0.1134796,0.0959473,0.2504807,0.0673714,0.3818588
	c-0.0284195,0.1262589-0.0960484,0.2407608-0.193224,0.3266373s-0.2189865,0.1385345-0.348011,0.1513138
	c-0.2308464,0.0265808-0.4641991-0.0199432-0.6672897-0.1324005c-0.7690678-0.5638275-1.1253586-1.4573669-1.0743942-2.6918564
	c0.0450859-1.2058716,0.1916409-2.4061127,0.4381809-3.5874481c0.0636425-0.3276749,0.1203327-0.6323318,0.1665936-0.9124603
	c-0.0007153-0.0091934,0.0019932-0.0178909,0.0075665-0.0250397c0.0055714-0.007164,0.0135441-0.0117569,0.02244-0.0132904
	c1.5631809-6.3539505,3.479845-12.6153641,5.7410412-18.7556343c0.0458527-0.1487541,0.0319481-0.3102875-0.0387993-0.4493256
	c-0.0387993-0.0644073-0.0944176-0.1175728-0.1609688-0.1533546c-0.0665054-0.0352707-0.1414948-0.0521393-0.2168427-0.0485611
	c-2.788784,0.0546989-5.5638142,0.40588-8.2783241,1.0474052c-2.8851395,0.6461296-5.7315807,1.4537926-8.5257835,2.4199181
	c-0.1430779,0.0679817-0.2701054,0.1656189-0.3726482,0.2862587c-1.6484461,2.6847038-3.2907066,5.3566322-4.9267321,8.0147591
	c-2.0199194,3.435112-3.8519812,6.9775772-5.4880066,10.6115417c-0.5161872,1.1613922-0.9444523,2.3601074-1.2811651,3.5854034
	c-0.0369072,0.1809616-0.1193089,0.3496399-0.2394357,0.4897079c-0.1201272,0.1405716-0.2739916,0.2479172-0.4471278,0.3123322
	c-0.1432319,0.0557098-0.2974896,0.0776901-0.4506288,0.0638962c-0.1531386-0.0138092-0.3009663-0.0633926-0.4318275-0.1441498
	c-0.2648876-0.1666489-0.3511178-0.4677353-0.2622652-0.9027481c0.7340717-2.5185699,1.6887174-4.9671097,2.8529253-7.3180161
	c1.1668653-2.3693161,2.4016166-4.7013092,3.7042508-6.9964981l0.3135052-0.559227
	c0.9641323-1.627079,1.9382343-3.2536469,2.9222507-4.8797035c0.061801-0.093544,0.0943127-0.2039604,0.0934944-0.3164215
	c-0.0008688-0.1124573-0.0350161-0.2223625-0.0982485-0.3153954c-0.0657883-0.0823021-0.1581583-0.1395531-0.2613134-0.1615334
	c-0.1031561-0.0219803-0.2108097-0.0076675-0.3045607,0.0403862l-1.5396166,0.6798668
	c-3.4157419,1.520752-6.6151023,3.4867439-9.5147591,5.8468513c-0.5135039,0.3849182-0.9713403,0.4805069-1.3657448,0.2888107
	c-0.1893505-0.0899658-0.3513173-0.2284927-0.4691898-0.4017792c-0.1178705-0.1732941-0.1873774-0.3746948-0.2013469-0.5837708
	c-0.0561917-0.4651718,0.1653293-0.9196091,0.6639373-1.3684196c4.6124964-3.2347336,9.6996365-5.7328606,15.0793762-7.4054375
	c0.1558065-0.0454903,0.288867-0.147728,0.3726473-0.2867661c5.3898621-8.6410027,11.4248791-16.8626366,18.0535278-24.5945625
	c0.2924423-0.3238811,0.6021156-0.6544075,0.9302406-0.9845791c1.1837349-1.3474655,2.4467545-2.6232128,3.7823601-3.8203392
	c1.2571869-1.1605778,2.7316856-2.0608635,4.3384666-2.6489239c0.5948105-0.1644974,1.2304611-0.0889454,1.7701569,0.2103481
	c0.2600403,0.1456852,0.4873085,0.3432579,0.6677551,0.5804443c0.1804466,0.2372379,0.3102341,0.5089798,0.381237,0.79846
	L46.0358086,25.6995506z M42.8925247,32.038105c0.0850639-0.3314476,0.1720123-0.6521587,0.2572784-0.9615765
	c0.3623734-1.1624184,0.6450577-2.3481979,0.8459969-3.5491085c0.1375618-0.9171562-0.0904274-1.3406143-0.6839027-1.270277
	c-0.5935287,0.0702877-1.7567635,0.8813229-3.4897614,2.433054l-0.0300026,0.0383892
	c-3.8242264,3.8483028-7.3973618,7.9381351-10.6974754,12.2442455c-3.3186684,4.3285522-6.4628716,8.7906761-9.432663,13.3864212
	c-0.0600128,0.0828133-0.095438,0.1809578-0.1021843,0.2831917c-0.0066967,0.1017227,0.0154877,0.2039604,0.0641022,0.2939262
	c0.0464153,0.0828133,0.1195126,0.1472206,0.2073841,0.1835136c0.0878201,0.0357819,0.1853027,0.0408936,0.2764435,0.0143127
	c4.0949974-1.0013962,8.2718811-1.6321907,12.480051-1.884201l0.0285759-0.0051117
	c0.2041626,0.0071564,0.4085846,0.0030708,0.6122894-0.0122681c0.5914307,0.0015335,1.2071495,0.0153389,1.8472443,0.0424271
	c0.1256981-0.0025558,0.2471008-0.0460052,0.3461685-0.123703c0.1161919-0.0843468,0.2078476-0.1983376,0.2656097-0.3302231
	c0.5154724-1.4865036,1.0493965-2.9727058,1.6018257-4.4585457C39.2869835,42.9546165,41.1546249,37.5131302,42.8925247,32.038105z
	 M40.1161156,76.1415634c0.4693108-1.1567917,1.0005264-1.8801041,1.5948257-2.1612549
	c0.5942955-0.2816544,1.07061-0.1886292,1.3730202,0.2949448c0.3024139,0.4840927,0.2850876,1.3040161-0.1019783,2.4684753
	c-0.4657364,1.1567993-0.9913788,1.87603-1.5769348,2.1587067c-0.5855522,0.2821732-1.037281,0.1824875-1.3551826-0.2985229
	C39.7296104,78.1234055,39.7553253,77.3090973,40.1161156,76.1415634z M124.1458969,17.3944931
	c0.6916199,4.0482216,0.0587845,8.3189621-1.8985138,12.8122673c-2.1229248,4.7582474-4.8674393,9.2139282-8.1614685,13.2504959
	c-3.4013748,4.2591858-7.1135559,8.2602272-11.106369,11.9703598c-3.3926849,3.2061043-6.9842224,6.1949615-10.7521133,8.9497032
	c-2.5732727,1.8611984-5.2503052,3.5741501-8.0183334,5.1301804c-2.7981949,1.6485443-5.8504333,2.8222122-9.0320053,3.4729385
	c-0.1380234,0.0322037-0.2652969,0.0996857-0.3685532,0.1962967c-0.103775,0.0960999-0.1804581,0.2177658-0.2228775,0.3532257
	c-1.0525208,3.7694244-1.9036255,7.366066-2.5533295,10.7899475c-0.6497192,3.4238663-0.7509308,5.9301682-0.3041534,7.5194244
	c0.0189056,0.0536652,0.050087,0.1027451,0.0914993,0.1421051c0.1533508,0.1932297,0.2438278,0.4283676,0.2586517,0.6747589
	c0.0153351,0.2458649-0.0454941,0.4907227-0.1743088,0.7013321c-0.1124573,0.2085648-0.2668381,0.3915634-0.4529037,0.538269
	c-0.1860733,0.1467056-0.4002533,0.2540588-0.6292648,0.314888c-0.4636383,0.1257477-0.8516235-0.0705414-1.1695709-0.5812149
	c-0.4943085-1.0095673-0.5909271-2.621315-0.2898407-4.8357391c0.3522034-2.4746094,0.871048-4.9226456,1.5524521-7.3272247
	c0.7355804-2.6734619,1.4890594-5.2155457,2.2614517-7.6252441c0.0322037-0.0751419,0.0465164-0.156929,0.0424271-0.238205
	c-0.004097-0.0812759-0.027092-0.161026-0.066452-0.2325897c-0.0429382-0.0679855-0.1027527-0.123703-0.1743164-0.1605072
	c-0.0710526-0.0373154-0.150795-0.0552063-0.2310486-0.0511246c-0.9431229-0.0521317-1.8703995-0.2617188-2.7440033-0.6200562
	l-0.057251-0.0526505c-1.6511078-1.0162125-2.5420914-2.4035568-2.6729507-4.1609879
	c-0.0986633-1.9169159,0.250473-3.8307648,1.0203094-5.5892181c0.7616501-1.8841972,1.7226715-3.6820145,2.8661728-5.3622551
	c3.3650894-4.9190636,7.3302917-9.3993874,11.8036118-13.3371925c0.1012115-0.0989685,0.1768646-0.2208824,0.2208252-0.35532
	c2.0912323-6.0598106,4.1124268-12.109808,6.0651321-18.1500397c0.0429382-0.1389389,0.0398712-0.2882023-0.0092087-0.4252472
	c-0.0199356-0.059042-0.053154-0.1126137-0.0971222-0.1565742c-0.0439606-0.0439091-0.0981369-0.077034-0.156929-0.0966644
	c-0.1272888-0.0459042-0.2428131-0.1187973-0.3389053-0.2136726c-0.0961075-0.0948238-0.1702271-0.2093773-0.218277-0.335741
	c-0.1088791-0.3428974-0.0863876-0.7140656,0.063385-1.0413723c0.7391586-1.773941,1.5135956-3.6914196,2.3227921-5.752388
	c0.0439606-0.1048927,0.0567398-0.2201633,0.0368042-0.3321114c-0.0194244-0.111948-0.0710526-0.2159214-0.1482391-0.2994995
	c-0.0787277-0.0744267-0.1794205-0.1213036-0.2872772-0.1335201c-0.1073532-0.0121651-0.2162323,0.0108891-0.3097763,0.0658398
	c-5.0294876,2.4141922-9.8667603,5.2106934-14.4683838,8.3649673c-4.6292267,3.146759-9.000824,6.6565075-13.0738869,10.4959679
	c-3.6349869,3.3663597-6.853363,7.1568489-9.5850983,11.2901306c-2.4360657,3.7828712-3.7679939,7.3586578-3.9957237,10.7278328
	c-0.2314644,2.4245186,0.3424911,4.8582344,1.633007,6.9239044c0.6144905,0.9620361,1.3638763,1.8310471,2.2247009,2.5809402
	c0.027092,0.0209579,0.0454941,0.0511246,0.0511169,0.0848541c0.006134,0.0337372-0.0005112,0.0679855-0.0189171,0.0971298
	c-0.0270882,0.0654221-0.0761604,0.119606-0.1385269,0.1533508c-0.0276031,0.0163574-0.0598106,0.0245285-0.0920105,0.0245285
	c-0.0322075,0-0.0644073-0.0086823-0.0920143-0.0255585c-2.9554749-2.6826553-4.3437309-5.8534966-4.1648216-9.5130157
	c0.1789627-3.659523,1.5610886-7.5560303,4.1464195-11.689003c2.5824699-4.134922,5.9751587-8.2385521,10.1780663-12.3109055
	c4.3204803-4.1652298,8.9798584-7.9640484,13.9295959-11.3571453c4.8715286-3.3802147,10.0180664-6.3456097,15.385437-8.8650007
	c0.1794205-0.0873098,0.3225479-0.2350397,0.4043427-0.4172754c0.1916885-0.4790239,0.3716278-0.9411802,0.5418472-1.3943911
	c0.277565-0.6597261,0.5300903-1.2929735,0.7677841-1.905262c0.4856186-1.1822014,0.9758377-1.8818512,1.469635-2.0989475
	c0.4835739-0.2213912,0.817894-0.1000376,1.001915,0.3605337c0.1845322,0.4606228,0.0909882,1.161499-0.2929001,2.0938873
	c-0.1456909,0.2932119-0.2632599,0.5997648-0.3501663,0.9153662c-0.0460052,0.0947208-0.0628662,0.201148-0.0475311,0.30548
	c0.0148163,0.1042805,0.0613327,0.2016077,0.1323853,0.2793589c0.0756607,0.0719728,0.1717606,0.1190529,0.275528,0.1350021
	c0.1032639,0.0159483,0.2090759,0,0.3031311-0.0456991c4.5566406-1.8141708,8.7759018-2.9260855,12.6582947-3.3358965
	c3.8818893-0.4097605,7.1682587,0.0644083,9.8580704,1.4225054
	C121.4197845,11.4617109,123.2191315,13.8905735,124.1458969,17.3944931z M71.0370636,70.7225723
	c0.7953949,0.3113022,1.6449738,0.4620972,2.4991455,0.4426727c0.1416016-0.0030594,0.2780838-0.054184,0.3864594-0.1456833
	c0.1191025-0.1022339,0.2100906-0.2336121,0.2637634-0.38134c0.3235703-1.0024185,0.5791626-1.8499451,0.7739258-2.5390167
	c2.1019592-6.4837837,4.285202-13.0151024,6.5497131-19.593399c0.0327225-0.0827599,0.0460129-0.1718102,0.0393677-0.2604485
	c-0.0066452-0.0886345-0.033226-0.1746178-0.0782089-0.2515488c-0.0419159-0.0691109-0.1017303-0.1256485-0.1732941-0.1635246
	c-0.0710449-0.0379333-0.1518173-0.0558739-0.2325821-0.0519371c-0.0955887,0.0034256-0.1896515,0.0257111-0.2765503,0.0656891
	c-0.0874023,0.0400238-0.1656189,0.0968666-0.230545,0.1672554c-3.9790039,4.0364113-7.3675995,8.6155434-10.0645752,13.6010666
	c-0.8424225,1.5892487-1.3438873,3.3369675-1.4721985,5.1312027c-0.1190948,1.7722549,0.5387802,3.0900726,1.9741669,3.9534454
	C71.0028152,70.7174606,71.0155945,70.7266541,71.0370636,70.7225723z M84.5505676,67.041069
	c4.0035477-2.4183884,7.8159027-5.1409187,11.4018173-8.1445999c4.2330704-3.4903259,8.2120743-7.2781525,11.9063644-11.3349648
	c3.6544037-3.9510994,6.8855667-8.2735672,9.6402969-12.8968658c2.6080322-4.4215355,4.1374741-8.6859856,4.5883331-12.7934017
	l0.0015335-0.0959492c-0.114502-4.2383289-1.4246521-7.1962595-3.9304504-8.8737926
	c-2.5063019-1.6775827-5.815155-2.2949333-9.9270706-1.8519974c-4.1052704,0.436904-8.6450348,1.6850977-13.6198273,3.7446337
	c-0.1012115,0.0370102-0.193222,0.0961533-0.2688751,0.1731367c-0.0756531,0.0769825-0.1329041,0.1698647-0.1676712,0.2718439
	c-1.1123199,3.0833235-2.2215729,6.1771765-3.3272476,9.2815084c-2.0048523,5.4779377-3.9677734,10.9582272-5.8882675,16.4409122
	c-0.0521393,0.113739-0.063385,0.2420425-0.0316925,0.3631935c0.0311813,0.1212006,0.1032562,0.2277832,0.2044754,0.3018494
	c0.1032562,0.0651779,0.2249146,0.0949783,0.3465729,0.0848045c0.121666-0.01017,0.2366791-0.0597534,0.3276749-0.1411858
	c3.0762634-2.4991493,6.3212204-4.7827835,9.7123795-6.8344994c2.3110352-1.3723602,4.7110062-2.5885048,7.1846008-3.6402016
	l0.0286255-0.0050106c0.5316238-0.2483292,1.0765457-0.4672146,1.6321945-0.6557388
	c0.8618393-0.3065529,1.7926941-0.6215401,2.7971573-0.9347916c0.8184052-0.2671909,1.6541748-0.4772854,2.501709-0.6287479
	c0.6635056-0.1170597,0.9124527-0.0211105,0.7453003,0.2622852c-0.096611,0.1402683-0.2382126,0.2431679-0.4012833,0.2914753
	c-4.3598251,1.1073627-8.8254852,3.0280647-13.3969421,5.7622032c-4.6435394,2.7902107-8.9803772,6.0622597-12.937912,9.7619133
	c-0.0950851,0.0908852-0.1697159,0.2005844-0.2192993,0.321991c-1.9424744,5.5944824-3.7842484,11.2116127-5.5248108,16.8514366
	l-0.7110519,2.3330193c-0.495842,1.6255417-1.0560913,3.5056534-1.680748,5.6393204
	c-0.0322037,0.0930252-0.0398712,0.1921921-0.0230026,0.2893219c0.016861,0.096611,0.0587845,0.1875992,0.120636,0.2637711
	c0.0618515,0.0736084,0.1456833,0.1257477,0.2387161,0.1487503c0.0935516,0.0230026,0.1916885,0.0163574,0.2806396-0.0194321
	c1.506958-0.402298,2.9704514-0.9512939,4.369545-1.6388321C81.9726944,68.441185,83.3150482,67.74189,84.5505676,67.041069z
	 M126.9860001,50.8635597c0.0378265-0.0544395,0.0884323-0.0987587,0.1472168-0.1290169
	c0.0587921-0.0303154,0.1242142-0.0456009,0.190155-0.0445251c0.0557251,0.0024529,0.1099091,0.0204964,0.1554031,0.0520859
	c0.0460052,0.0315933,0.0822983,0.0754547,0.1042786,0.1265717c0.0219803,0.0593452,0.0260696,0.123909,0.0112457,0.1854553
	c-0.0143127,0.0616989-0.0470276,0.1174164-0.093544,0.1603546c-0.9456787,1.0995445-2.1183243,1.9803047-3.4376678,2.5819626
	c-1.3607559,0.6302834-2.5732727,0.5847855-3.6375427-0.1349525c-0.5781479-0.6047211-0.913475-1.400631-0.9426193-2.2364044
	c0.0035858-0.0751419-0.0230026-0.1487503-0.0736084-0.2044716c-0.0506058-0.0562286-0.1206284-0.0899696-0.1957779-0.0940552
	c-0.0858765-0.0040894-0.1707306,0.0184021-0.2433167,0.0649185c-0.0720825,0.0465164-0.1283112,0.1139946-0.1600037,0.193737
	c-0.4017792,0.8327065-0.7381363,1.5539818-1.0116196,2.1730156c-0.024025,0.0715637-0.0562286,0.1400642-0.0961075,0.2044716
	c-0.845993,1.9915504-1.5064316,4.0567093-1.9736557,6.1688957c-0.0429382,0.1952705-0.0884323,0.4166107-0.1308594,0.656353
	c-0.08741,0.408432-0.2060013,0.8091927-0.3552704,1.1992226c-0.1615295,0.4002533-0.4457397,0.7391624-0.8117447,0.9676628
	c-0.1824875,0.1119461-0.3925934,0.1707344-0.6062622,0.1686859c-0.21418-0.0020447-0.4227448-0.0644073-0.6026764-0.1799355
	c-0.1748199-0.1175728-0.3072205-0.2877922-0.378273-0.4856148c-0.0715637-0.1978264-0.0776978-0.4130363-0.0184021-0.6149483
	c0.5413361-3.1493721,1.2033157-6.3018036,1.9864349-9.4567947c-0.0020447-0.036293,0.0086899-0.0720749,0.0301666-0.1012115
	c0.2453613-1.1069565,0.6011353-2.1865654,1.0617142-3.2228241c0.0863876-0.2244072,0.2290039-0.4230995,0.4135437-0.5773239
	c0.1845322-0.1542206,0.405365-0.2589149,0.6415253-0.304203c0.191185-0.033226,0.3879852-0.0169678,0.5715027,0.0473366
	c0.1829987,0.0643082,0.347084,0.1744652,0.4759064,0.3199463c0.2698975,0.3019028,0.2893219,0.7253113,0.0587769,1.2738037
	c-0.631813,1.7051888-1.1399231,3.4539261-1.520752,5.2318039l0.63591-1.6940422
	c0.4467621-1.2370529,0.9257355-2.4705772,1.4374313-3.7014389c0.0643997-0.176918,0.1354599-0.358696,0.2208252-0.543026
	c0.3460693-0.8153801,0.7575684-1.6016235,1.2298965-2.3510628c0.435524-0.7312889,1.0995407-1.2984924,1.8903351-1.6137886
	c0.1303482-0.0501938,0.2698975-0.0721741,0.4099655-0.0644073c0.1395493,0.0077171,0.2760315,0.0449333,0.3997421,0.1092377
	c0.1191025,0.0685005,0.220314,0.163681,0.2959671,0.2780304c0.0756607,0.1144028,0.123703,0.2448044,0.1405792,0.3809814
	c0.0173798,0.1726761,0,0.3470383-0.0501022,0.5131187c-0.050087,0.1660843-0.1329041,0.3206139-0.2428055,0.4547462
	c-1.1153946,1.383091-1.8484192,3.0349121-2.1249619,4.7904015c-0.0158539,0.9114304,0.2627411,1.4880409,0.8291245,1.7374954
	c0.6476669,0.2499657,1.3628006,0.2632561,2.0191498,0.0378265c0.753479-0.2090721,1.4558411-0.5699615,2.0651627-1.0596733
	C126.1916275,51.7757568,126.625618,51.3489265,126.9860001,50.8635597z M146.4036102,49.1764717
	c0.0184021-0.056282,0.0531616-0.1058159,0.1001892-0.1422615c0.0465088-0.0363998,0.1027374-0.0580711,0.1620331-0.0621605
	c0.0506134-0.0017357,0.100708,0.009407,0.1462097,0.0323067c0.0449677,0.0228996,0.0838318,0.0568428,0.1124573,0.0987091
	c0.0306702,0.0500946,0.046524,0.1078072,0.0460052,0.1665382c-0.0010376,0.0586891-0.0184021,0.1160431-0.0500946,0.1653671
	c-0.6742401,1.2077637-1.4578857,2.3510132-2.3417206,3.4152832c-0.8516083,1.0734749-1.897995,1.9772377-3.0844421,2.6632385
	c-1.0826721,0.6379471-2.3733978,0.8204384-3.5899963,0.50811c-0.7447815-0.2847252-1.4139252-0.7366104-1.9557648-1.3213959
	c-0.5423737-0.5842743-0.9426117-1.2856102-1.1706085-2.0498238c-0.0194244-0.0705414-0.0649109-0.1308594-0.12677-0.1697121
	c-0.0618439-0.0388451-0.1359711-0.0526505-0.2080536-0.0398674c-0.0797272,0.0097084-0.1553955,0.0429382-0.216217,0.0955887
	c-0.0608368,0.0526505-0.1042786,0.1221695-0.1252441,0.2003822c-0.6077881,1.6899567-1.3653564,3.3221436-2.2640076,4.8771477
	c-0.8490601,1.4445877-1.9179382,2.3544846-3.1984406,2.7276459c-1.6526337,0.0189133-2.5431137-0.7672768-2.6719284-2.3585777
	c-0.1282959-1.5918083,0.1421127-3.4790764,0.8122635-5.6628265c0.6655579-2.1924934,1.3495178-4.1847572,2.0513611-5.9766426
	c0.0853729-0.2254295,0.2228699-0.4277039,0.4002533-0.5906677c0.177887-0.1629601,0.3910522-0.2820129,0.6231232-0.347702
	c0.1881104-0.0534172,0.3869629-0.0566902,0.5766144-0.0094566c0.1896362,0.0472336,0.3634338,0.1433372,0.5045166,0.2787476
	c0.2919006,0.2760353,0.3363647,0.6765938,0.1477356,1.2544327c-0.8414001,2.0902557-1.559082,4.2283592-2.1494904,6.4023972
	c-0.3200073,1.1031265-0.5070953,2.2404938-0.5582123,3.3880882c0.0209503,0.6808891,0.1099091,1.0402489,0.2739868,1.0739861
	c0.5960388-0.3772469,1.3265076-1.4875298,2.190918-3.3298111c0.8649139-1.8428001,1.6592712-3.6902466,2.3825989-5.542244
	c0.7207489-1.8663635,1.1670227-3.0489235,1.3392792-3.5477791l0.0276031-0.0712051
	c0.0787201-0.2300339,0.2141876-0.4365997,0.3936005-0.6006889c0.1794434-0.1640854,0.3972015-0.2804298,0.6333618-0.3382988
	c0.1906586-0.0423737,0.3884888-0.0372658,0.5765991,0.0148773c0.1886292,0.0521927,0.3609009,0.1497765,0.5025024,0.2841644
	c0.2918854,0.2760887,0.3399353,0.6759796,0.149765,1.2246819c-0.0853577,0.2248116-0.180954,0.4550476-0.2842102,0.683033
	c-0.6696472,2.4361725-0.7018433,4.4864578-0.0966187,6.1508484c0.6052399,1.6643982,1.6572418,2.5114212,3.1565247,2.5415802
	c1.4952087,0.0357819,3.2434235-1.1787796,5.2446899-3.6436768
	C145.4333801,50.8405609,145.9476318,50.0246162,146.4036102,49.1764717z M162.9064636,46.1083298
	c0.0460052-0.0650749,0.1109314-0.114502,0.1855621-0.1415443c0.0751495-0.0270424,0.1564178-0.030365,0.2330933-0.00951
	c0.063385,0.023922,0.120636,0.0618553,0.1676788,0.1109276c0.0470276,0.0490227,0.0823059,0.1080093,0.1032562,0.1725235
	c0.0158386,0.0797424,0.009201,0.1624489-0.0194244,0.2385139c-0.0291443,0.0760612-0.0792389,0.1424141-0.144165,0.1913338
	c-2.2747345,2.4027901-4.8628387,3.6600876-7.7647705,3.7719307c-0.1007233,0.0069008-0.1978455,0.0420189-0.2796326,0.101368
	c-0.0817719,0.0593452-0.1456757,0.1404686-0.1835022,0.2342224c-0.4825592,0.9230347-1.029007,1.8114586-1.6362915,2.6579704
	l-0.0296326,0.0383377c-0.63797,1.0520058-1.386322,2.0329552-2.2328339,2.9254684
	c-0.7243347,0.8357773-1.6725769,1.4476585-2.7327728,1.7620354c-0.9436188,0.2402496-1.8146667-0.1727829-2.6121063-1.2319412
	l-0.0107269-0.060318c-0.6144409-1.2017822-0.7739258-2.8022766-0.4789886-4.8020058
	c0.2985382-2.0355644,0.9231873-4.0094757,1.8504639-5.8457794c0.0501099-0.0750961,0.077713-0.1630173,0.0792389-0.2533379
	c0.0020599-0.0903282-0.0224762-0.1792717-0.0700378-0.2561531c-1.6572418-2.4452744-2.4055939-5.2963142-2.2440643-8.5530281
	c0.1620483-3.2567177,1.2166138-6.5273876,3.163681-9.8120098c1.4077911-2.3512669,3.1008148-4.5196838,5.0397186-6.4558201
	c2.0406036-2.0769176,4.2688293-3.3872185,6.6846619-3.9310093l0.057251-0.0100193
	c2.2072601-0.1121006,3.5276489,0.9258442,3.960083,3.1137886c0.4319458,2.187891,0.2811584,4.9975319-0.4528961,8.428812
	c-0.7928314,3.5927639-1.8453522,7.1232662-3.1493683,10.5636959c-1.3500214,3.6110153-2.6990204,6.7925339-4.0459595,9.5444603
	c-0.0317078,0.0750389-0.0480652,0.1559105-0.046524,0.2373924c0.0010223,0.0815849,0.0189056,0.1619911,0.0526581,0.2361641
	c0.0332184,0.0628242,0.0843353,0.1145515,0.1461792,0.1487007c0.0623627,0.0341454,0.1334229,0.0492249,0.2039642,0.0433998
	C158.7751312,49.1513176,160.8438721,48.0984955,162.9064636,46.1083298z M146.2676392,38.5113564
	c0.0930328,1.9736061,0.6716766,3.8936958,1.6848297,5.5902443c0.0393677,0.0548477,0.0925293,0.0984001,0.1543732,0.1262589
	c0.0618591,0.0278587,0.129837,0.0390511,0.1973114,0.0324593c0.0817871-0.0065422,0.161026-0.0306206,0.2325897-0.0705452
	c0.0720825-0.0399208,0.1339264-0.0948181,0.1824951-0.1609154c0.6481781-0.9067802,1.4962158-1.6519203,2.4792175-2.1775169
	l0.0316925-0.0056725c1.2738495-0.4784126,2.239975-0.4243279,2.905014,0.153862
	c0.3440247,0.322094,0.6210785,0.709671,0.8138123,1.1400795c0.1927032,0.4304161,0.2975006,0.8949738,0.3087463,1.3664322
	c0.0797272,1.117382-0.1272888,2.2366562-0.600647,3.2519073c-0.08638,0.2170486-0.2228699,0.4105797-0.3987122,0.5649033
	c-0.1753235,0.154377-0.3849182,0.2650986-0.6108551,0.3233223c-0.1855469,0.0487633-0.3803101,0.0476913-0.5648499-0.0031204
	c-0.1845245-0.0507584-0.3527069-0.1494675-0.4871521-0.2860527c-0.2801208-0.2744026-0.322052-0.6791534-0.1313782-1.2242737
	c0.385437-1.2944031,0.3982086-2.1933098,0.0398712-2.6967163c-0.3572998-0.5036621-1.0479126-0.0581207-2.0697479,1.3473091
	l-0.2867737,0.4590912c-0.0582886,0.1069374-0.0863953,0.2275734-0.0817871,0.3492889
	c0.003067,0.0522385,0.0163574,0.1034088,0.0388336,0.150486c0.0230103,0.0471344,0.054718,0.0893021,0.0940704,0.1240654
	c0.9758301,0.8946648,2.1326294,1.5691109,3.3916626,1.9776459c0.0505981,0.0234642,0.1063232,0.0348625,0.1620483,0.033329
	c0.0562134-0.0015869,0.1109161-0.0160522,0.1599884-0.0422745c0.1196136-0.0575104,0.2208405-0.1466599,0.2934265-0.25774
	c2.838562-4.9802017,5.2048035-10.2154312,7.0670319-15.636982c0.4866486-1.4129467,1.0151978-3.2023754,1.5851593-5.3683376
	c0.5423584-1.9982986,0.8061218-4.0618725,0.7841492-6.1323471c-0.0419312-1.9207001-0.7095184-3.2318707-2.0032959-3.9334126
	c-0.008194-0.0068989-0.017395-0.0121651-0.0276184-0.0154362c-0.0102234-0.0033226-0.0204468-0.004549-0.031189-0.0036812
	c-0.716156-0.1873474-1.463501-0.2246628-2.1944733-0.1096478c-0.7315063,0.1150665-1.4313049,0.3799076-2.0554504,0.7780647
	c-1.4154663,0.8209-2.7112885,1.8319073-3.8522491,3.0048065c-2.2686005,2.3838272-4.0945129,5.1528778-5.3913879,8.1772614
	C146.8069305,32.222641,146.1858368,35.3563156,146.2676392,38.5113564z M150.6438293,53.9002113
	c0.0086975-0.0010185,0.0163574-0.005619,0.0219879-0.0117531c0.0056152-0.006134,0.0086823-0.0143127,0.0086823-0.0230064
	c0.796402-1.0479126,1.5473175-2.1188316,2.2522583-3.2119827c0.0797272-0.1215057,0.1088715-0.2690849,0.0822906-0.4118042
	c-0.0117493-0.0630798-0.0424347-0.1211014-0.0879211-0.1663399c-0.0455017-0.0452385-0.103775-0.0755501-0.1666412-0.0868492
	l-0.0056305-0.0321503c-1.0709229-0.4064407-2.0728302-0.9742584-2.9719849-1.6837196
	c-0.063385-0.0379295-0.134964-0.0608292-0.2085571-0.066967c-0.0741272-0.006134-0.1482544,0.0047035-0.2172699,0.0316467
	c-0.1574249,0.0715637-0.2811279,0.2015533-0.3445129,0.3624763c-0.4559784,1.1225433-0.787735,2.2915039-0.9896545,3.4862823
	c-0.1988373,1.0428047-0.1467133,2.1183205,0.1523438,3.1376114c-0.0005188,0.0112419,0.0020447,0.0219803,0.0071411,0.0321999
	c0.0051117,0.009716,0.0122833,0.0184059,0.0214844,0.0250511c0.0275879,0.0700302,0.0684967,0.1339302,0.1211395,0.1881104
	c0.0521393,0.0536766,0.1150208,0.0966148,0.1845398,0.1262627c0.0495911,0.0322075,0.1073456,0.0500946,0.1671448,0.0506058
	c0.0592957,0.0005112,0.1175842-0.0158463,0.1681824-0.0475349c0.6379547-0.3746948,1.1971741-0.8705368,1.6449738-1.4599266
	C150.5288086,54.0535698,150.5824738,53.9738235,150.6438293,53.9002113z M183.7083435,42.2528191
	c0.0695343,0.0221367,0.1308746,0.0649223,0.1758423,0.1226845c0.0449982,0.0577126,0.071579,0.1277466,0.0761719,0.2008438
	c0.0071564,0.1679192-0.0444794,0.3330803-0.1456909,0.4672165c-0.9242096,1.526886-2.0579987,2.9169846-3.3671265,4.1298027
	c-1.1884766,1.1545486-2.581955,2.0766602-4.1093597,2.7189064c-1.3750763,0.549057-2.562027,0.4996262-3.5618744-0.1482925
	c-0.9998627-0.6479149-1.5677948-2.1287994-1.7032471-4.442646v-0.1251373
	c0.0045929-0.2093277-0.0015411-0.4535179-0.0189209-0.7325706c-0.0178986-0.2691345-0.0398865-0.5191536-0.0654297-0.7464752
	c-0.0051117-0.146553-0.0393677-0.2905998-0.1006927-0.4238129c-0.4462738-0.1751328-1.0469055,0.3208122-1.7988434,1.4835892
	c-0.7514343,1.1628265-1.5590973,2.5525665-2.4194183,4.1614494c-0.7156372,1.3527298-1.397049,2.5532303-2.0436707,3.602169
	c-0.649704,1.0525131-1.1757202,1.6792221-1.6219788,1.8826675c-0.6921387,0.1221695-1.1389008-0.0531616-1.3362274-0.526001
	c-0.2085419-0.5433807-0.2801208-1.1297035-0.2090607-1.7073326c0.0618439-0.6134186,0.1630554-1.2226868,0.3036346-1.8233223
	c0.0005188-0.0563316,0.0122833-0.1121025,0.0337372-0.1641388c0.6215973-2.886982,1.443573-5.7270355,2.4608154-8.4995117
	c0.0173798-0.0383873,0.0327148-0.0779533,0.0449829-0.1183853c0.009201-0.0285263,0.0199432-0.056282,0.0332336-0.0831184
	l0.0480499-0.1040802l-0.0056305-0.0321503c0.0153503-0.0317459,0.0255585-0.0658379,0.0301666-0.1009598
	c0.0301514-0.3503571,0.1748047-0.6810417,0.411499-0.9409752c0.223877-0.2649422,0.5295868-0.4482002,0.8684845-0.5210953
	c0.161026-0.0331726,0.3276672-0.0223885,0.4825592,0.0311852c0.1553802,0.0536232,0.2929077,0.148037,0.399231,0.2733269
	c0.106308,0.1192589,0.1835022,0.2620277,0.2243958,0.4167137c0.0444794,0.1568298,0.0572662,0.3209686,0.037323,0.4828033
	c-0.1185913,0.7967224-0.3051758,1.5817909-0.5576935,2.3465118l-0.2596741,0.9288635
	c-0.238739,0.8859215-0.5745697,2.1312523-1.0080566,3.7358932c-0.4334717,1.6046906-0.7693024,2.8708229-1.0080414,3.7982559
	c0.1911774-0.305687,0.5479889-0.9267693,1.0699005-1.8626289c0.8598022-1.5645638,1.8601685-3.2643356,3.0011139-5.0992088
	c1.1409607-1.8349228,2.1132202-3.0132904,2.9162903-3.5352058c0.2862549-0.1639824,0.6103363-0.250267,0.9400482-0.2503204
	c0.3296967-0.0000534,0.6537933,0.086132,0.9400482,0.2499657c0.2704315,0.1590767,0.4994354,0.3798561,0.6681213,0.6442375
	s0.2724457,0.5649529,0.3031311,0.8771286c0.1093903,0.8114471,0.0966034,1.634594-0.0368195,2.4423599
	c-0.2249146,0.9560547-0.1988373,1.9542313,0.0766754,2.8970528c0.2479248,0.3501015,0.6072845,0.605896,1.0193024,0.7257156
	c0.4120026,0.1197701,0.8526459,0.0965118,1.2498322-0.0660934c1.0243988-0.3576202,1.975174-0.8993683,2.8053284-1.5985031
	c0.8102264-0.633606,1.5626831-1.3376541,2.2486877-2.1038551c0.7376251-0.7480583,1.359726-1.6018333,1.8458557-2.5331955
	c0.0654297-0.1149635,0.1625519-0.2087173,0.2796173-0.2701569c0.0552063-0.0379829,0.1185913-0.0631332,0.1850433-0.0735092
	C183.575943,42.2290535,183.6439362,42.2336006,183.7083435,42.2528191z M163.144165,54.3418732l-0.244339,0.0761642
	l0.0894623-0.0158463c0.0480499-0.0276031,0.1017151-0.0444717,0.1569214-0.0495834L163.144165,54.3418732z M196.3211517,40.0803146
	c0.0674744,0.0308762,0.123703,0.0815849,0.161026,0.1453781c0.0378265,0.0637436,0.0546875,0.1374588,0.049057,0.2112694
	c-0.006134,0.1632233-0.075119,0.3176994-0.1921844,0.4313354c-0.9886322,1.3254318-2.0447083,2.5986748-3.1652222,3.8145638
	c-1.2114868,1.349453-2.5569,2.5728569-4.014801,3.6514931c-1.2007446,0.9465485-2.6345978,1.5515289-4.1507568,1.7511406
	c-1.5100098-0.2157669-2.3733978-0.9392357-2.6432953-2.1574249c-0.2458801-1.3889198-0.1487579-2.8167915,0.2821655-4.1598129
	c0.3900299-1.4155502,0.8971252-2.7961388,1.5166626-4.1273499c0.0940704-0.217968,0.2361603-0.4117012,0.4161072-0.5664902
	c0.1799316-0.1547852,0.3925781-0.2665253,0.6221008-0.3267441c0.1835175-0.0480003,0.376236-0.0463104,0.5587158,0.0049591
	c0.1824951,0.0512733,0.3475952,0.1502838,0.4789734,0.2867737c0.2704163,0.2798157,0.3184662,0.6982155,0.1477203,1.2544289
	c-0.1937256,0.7088013-0.4339905,1.4354897-0.7197266,2.180069c-0.2325897,0.6543579-0.4467621,1.3053474-0.6415253,1.9529572
	c-0.0209503,0.1104126-0.0444794,0.2285995-0.0659485,0.3574638c-0.3726501,0.9536057-0.4830627,1.9894562-0.3205109,3.0002594
	c0.1231995,0.2713814,0.3317566,0.4950218,0.5939941,0.636776c0.2617188,0.1417999,0.5633087,0.1939392,0.8577576,0.1485481
	c0.6757813-0.0535202,1.3290558-0.2658615,1.907196-0.619648c2.2072754-1.3752251,4.1686554-3.1102638,5.802887-5.1332512
	c0.6655579-0.7968216,1.2810211-1.6340828,1.842804-2.5069733c0.077713-0.1164932,0.1916962-0.2039032,0.3240967-0.2484818
	c0.0557251-0.0220299,0.1160278-0.0306168,0.1758423-0.0251999c0.0597992,0.0054207,0.117569,0.0247917,0.1681824,0.0565376
	L196.3211517,40.0803146z M188.0410919,33.7286224c-0.4989166,0.6141281-0.9380188,0.9417419-1.3622894,0.9760933
	c-0.0843506,0.0181465-0.1717529,0.0184059-0.2561035,0.0007172c-0.0843353-0.0176849-0.1640778-0.0528564-0.2341156-0.1033096
	s-0.1282959-0.1150131-0.1717682-0.1895447c-0.0434418-0.0745316-0.0705414-0.1572876-0.080246-0.2430153
	c-0.0843506-0.394783,0.1027527-0.9281464,0.5607605-1.6000862c0.4999237-0.6155624,0.9538574-0.9409275,1.3622894-0.9761486
	c0.0843506-0.0181465,0.1712494-0.0184021,0.2555847-0.0007153c0.0843506,0.0176888,0.1641083,0.0529079,0.2341309,0.1033096
	c0.0700226,0.0504532,0.1288147,0.115015,0.1722717,0.1895447c0.042923,0.0745296,0.0705414,0.157341,0.0797272,0.2430649
	c0.0756683,0.4061813-0.1093903,0.9428673-0.5694427,1.6126671L188.0410919,33.7286224z M209.5259094,3.6569855
	c-2.2011414,5.4364901-4.2264252,10.9217358-6.0763702,16.4557972c-2.1811981,6.4117069-4.2356262,12.8453388-6.1638031,19.3007488
	c0.0818024-0.1396027,0.1553955-0.2665787,0.2192993-0.3845558l0.3148956-0.5301933
	c0.247406-0.411602,0.50914-0.8257065,0.7851563-1.2423706c0.7524719-1.229126,1.5815887-2.444912,2.4884186-3.6473007
	c0.8562164-1.1581802,1.9133301-2.1533909,3.1207428-2.938406c0.5101624-0.2370853,0.9150085-0.2164841,1.2048492,0.0709496
	c0.1446686,0.1418514,0.2525177,0.3171883,0.3133392,0.5104618c0.0613556,0.1932774,0.0736237,0.3986168,0.0368195,0.5979252
	c-0.0413971,0.2399502-0.1416016,0.4659901-0.2913818,0.6579876c-0.149765,0.1920013-0.3445282,0.3440742-0.5668945,0.4426842
	c-1.5596008,1.4020576-2.8999176,3.0300026-3.9764557,4.8295555c-1.2661743,2.0263596-2.3509064,3.8881226-3.2536316,5.5853844
	c-0.0434723,0.0510178-0.0756683,0.110569-0.094574,0.1748238c-0.0214844,0.0442696-0.0511169,0.1047401-0.0940704,0.1748199
	c-0.2939148,0.6012993-0.5883636,1.2113419-0.8843231,1.8301201c0.4273529-0.2603416,0.8403625-0.5432281,1.2380676-0.8474274
	c0.0240326-0.0067482,0.0449829-0.0222359,0.0582733-0.0434532c0.7447815-0.5336685,1.4885559-1.0756187,2.2302704-1.6259041
	c0.9052887-0.6673889,1.8238831-1.3200111,2.7567902-1.9579124c1.6398621-1.2410851,3.4427643-2.2510719,5.3576508-3.0016327
	c0.1819763-0.0541382,0.3056946-0.0207558,0.3844147,0.0905266c0.0286255,0.0618019,0.0444641,0.1290207,0.0454865,0.1972618
	c0.0015411,0.0682449-0.0117493,0.1360245-0.0383301,0.1988487c-0.0260925,0.0701828-0.0680084,0.1332664-0.1231995,0.1839218
	c-0.0552063,0.0506592-0.1216583,0.0874634-0.1937408,0.107399c-1.5018463,0.6205711-3.3410492,1.7727165-5.5166321,3.4564857
	c-2.1760864,1.6837692-4.0602875,3.1910782-5.6531067,4.5218277c-0.9906769,0.8296394-1.6419067,1.3528824-1.9516754,1.576828
	c-0.1564331,0.1110306-0.3353424,0.1865311-0.5239716,0.2211876c-1.0151978,3.7187691-1.9532013,7.4411659-2.8145447,11.167141
	c-0.8112335,3.49646-1.4875183,6.9785957-2.0288544,10.4469414c-0.0449982,0.3583374-0.2126617,0.6895828-0.4748993,0.9375
	c-0.2479095,0.2453766-0.575592,0.3936081-0.9237061,0.4166107c-0.1605072,0.0107346-0.3215179-0.0199356-0.4672089-0.0879211
	c-0.1456757-0.0679779-0.2719421-0.1722641-0.3670197-0.3021088c-0.0955963-0.1364822-0.1615448-0.2913666-0.1937408-0.4549408
	c-0.0316925-0.1635742-0.029129-0.3322678,0.0081787-0.4948273c0.9461975-4.2586212,2.0022888-8.5034409,3.1672668-12.7339478
	c4.0633545-14.699028,8.4640808-29.3482609,13.2021942-43.9478073c1.1230469-3.509594,2.2813721-7.0034447,3.4759979-10.481576
	c0.0843506-0.2343955,0.2223663-0.4458597,0.4033203-0.6175795c0.1804504-0.17172,0.3982239-0.2989576,0.6364136-0.3716061
	c0.1896515-0.0603139,0.391571-0.0676749,0.5842743-0.0212803c0.1932373,0.0463946,0.3701019,0.1447706,0.5111847,0.2844553
	c0.2934113,0.2867861,0.3338013,0.7248859,0.1201324,1.3071585L209.5259094,3.6569855z M221.2860565,35.7739983
	c0.0547028-0.0259666,0.1160431-0.0349655,0.1758575-0.0258675c0.0603027,0.0090981,0.1160278,0.0358887,0.1605072,0.0769348
	c0.0388336,0.0419159,0.0669556,0.0923157,0.0822906,0.1471672c0.0153351,0.0547981,0.0173798,0.1125107,0.0066376,0.1683311
	c-0.0112457,0.0628242-0.0367889,0.1221199-0.0751343,0.1730347c-0.0383301,0.0509109-0.0884247,0.0919609-0.1456757,0.1197662
	c-1.852005,0.9246712-3.7612457,1.7295723-5.7160034,2.4098969c-0.0449829,0.0133438-0.0858765,0.0378838-0.1185913,0.0713654
	c-0.0327148,0.0334282-0.0562286,0.0746803-0.0684967,0.1198158c-0.2821655,0.9101028-0.6159821,1.8031273-1.0003662,2.6747894
	c-0.5229492,1.2476349-1.3377533,2.3515739-2.3759613,3.2191429c-1.0842133,0.927021-2.1944885,1.0566063-3.327774,0.4101181
	l-0.057251,0.0100746c-0.3997345-0.348629-0.72229-0.7769432-0.9472198-1.2575035
	c-0.2249146-0.4806061-0.3465576-1.0028267-0.3578186-1.5332756c-0.0618439-1.1562347,0.029129-2.3155327,0.2714233-3.4477921
	c0.0194397-0.1033096,0.0511322-0.20401,0.0940704-0.2999573c0.0051117-0.0437584-0.0005035-0.087925-0.0153351-0.1292801
	c-0.0148315-0.0413513-0.0393524-0.0787735-0.0705414-0.1093903c-0.1717529-0.1494179-0.3327789-0.3103371-0.4825439-0.4816322
	c-0.0035858-0.0214195-0.0056305-0.0321007-0.0306702-0.0277061c-0.3327789-0.5494652-0.5168152-1.1761208-0.5336761-1.8183098
	c-0.0173798-0.6421432,0.1334076-1.2776909,0.4360352-1.8440781c0.6287537-1.2640381,1.5820923-2.3377686,2.7634277-3.1107712
	c1.2278595-0.8272896,2.4311523-1.1879253,3.6104431-1.0818062l0.0316925-0.0056744l-0.0051117-0.0285225
	c0.0710602-0.0373669,0.1436462-0.0710526,0.2177582-0.1009579c0.2070313-0.1210995,0.4662018-0.2587585,0.7856903-0.4071026
	c0.2704163-0.1370964,0.5602417-0.2316647,0.8592987-0.2803288c0.25354-0.0446777,0.4048462,0.0611362,0.4411469,0.290144
	c-0.0066528,0.0678329-0.0265808,0.1336212-0.0593109,0.193634c-0.032196,0.0600128-0.0761566,0.1130714-0.1288147,0.1560631
	c-0.207016,0.1615829-0.4028015,0.3249035-0.5904083,0.4720211c-0.060318,0.0473347-0.0996857,0.1163445-0.1093903,0.192255
	c-0.0071564,0.0356789-0.0041046,0.0725346,0.0081787,0.1066818c0.0127716,0.0340958,0.0342407,0.0641518,0.0628662,0.0869007
	c0.281662,0.3008804,0.5142517,0.6450539,0.6875305,1.0194416l0.0046082,0.0285244
	c0.5658722,1.8073196,0.6205597,3.7358398,0.1584625,5.572403c-0.0035706,0.0349617,0.0010376,0.0702362,0.0127716,0.1032066
	c0.0122833,0.0329704,0.0322266,0.0626678,0.0577698,0.0867462c0.0270996,0.0228996,0.0592957,0.0389519,0.0940704,0.0469246
	c0.0347595,0.0079765,0.0705261,0.0075645,0.1053009-0.0011253l1.5979309-0.5356598
	c1.1726379-0.4030151,2.3330231-0.8750343,3.4816284-1.4160156L221.2860565,35.7739983z M208.5735779,34.107811
	c-0.2714386,0.3965225-0.4564819,0.8452873-0.5444031,1.3176155s-0.0761566,0.9577942,0.0347443,1.4252663
	c0.0214844,0.1213531,0.1068573,0.1687927,0.2106171,0.1505394c0.0536652-0.0124702,0.1042786-0.0371628,0.1472168-0.0721245
	c0.0429382-0.0350151,0.0771942-0.0793877,0.1001892-0.1297379c0.5929718-1.6552925,1.4880371-3.1857643,2.6412659-4.5132408
	c0.0281067-0.0288811,0.0495758-0.063488,0.0628662-0.1014175c0.0138092-0.0379295,0.0189209-0.0783653,0.0158539-0.1185417
	c-0.0040894-0.0340462-0.0153351-0.0668621-0.0332336-0.0961533c-0.0173798-0.0292377-0.0419159-0.0542355-0.0700226-0.0732517
	c-0.034256-0.0181465-0.0736237-0.024332-0.1119537-0.0176353c-0.0378265,0.0067463-0.0725861,0.0260181-0.0986633,0.0547466
	c-0.9783936,0.4911423-1.7978058,1.249218-2.3631744,2.1865654L208.5735779,34.107811z M210.9771271,43.438652l0.0603333-0.010685
	c1.0704041-0.6916237,1.9971619-1.9196281,2.7797699-3.6840591c0.0168762-0.0784683,0.0025635-0.1604042-0.0403748-0.2283936
	c-0.0224915-0.0331764-0.0552063-0.0581703-0.0935516-0.0713615c-0.0378265-0.013134-0.0792236-0.013752-0.117569-0.0016861
	c-1.0468903,0.2295685-2.122406,0.2951546-3.1892242,0.1943474c-0.0368195-0.0051575-0.0741425-0.0016327-0.1088867,0.0102768
	c-0.0347595,0.0119095-0.0664673,0.0318985-0.0925293,0.0583267c-0.0506134,0.0488167-0.0879211,0.1099052-0.1083679,0.1773758
	c-0.1737976,0.8386421-0.218277,1.6989517-0.1318817,2.5510864C210.0360565,43.174015,210.3836517,43.5089417,210.9771271,43.438652
	z M214.2057343,38.2955894c0.0511169-0.0189667,0.0971222-0.0491257,0.134964-0.0882301
	c0.0373077-0.0391541,0.0659332-0.086235,0.0827942-0.1378632c0.4094543-1.2245255,0.6307983-2.5041618,0.655838-3.7951393
	c0.008194-1.182663-0.2806244-2.0479317-0.859787-2.6007214c-0.0214844-0.0168667-0.046524-0.0287781-0.0731049-0.0349121
	c-0.026062-0.0061359-0.0536804-0.00634-0.0802612-0.0006142c-0.0603027,0.0107346-0.1150208,0.0424786-0.1538544,0.0896091
	c-1.4379425,1.6995621-2.5293121,3.6645813-3.2112274,5.7839775c-0.1032562,0.228138-0.1845398,0.4654274-0.2433167,0.7088509
	c-0.0071564,0.0284233-0.0081787,0.0581207-0.003067,0.0870056c0.0051117,0.0289268,0.0163574,0.0564308,0.0327148,0.0807114
	c0.0352631,0.0508652,0.0833282,0.0918617,0.1390381,0.1190033
	C211.8226166,38.638588,213.0330963,38.5670242,214.2057343,38.2955894z M235.8464508,33.438427
	c0.0638885-0.0958939,0.1308594-0.1334686,0.2003784-0.1162415c0.0337372,0.0083313,0.0654297,0.0245857,0.091507,0.0474358
	c0.0265808,0.02285,0.0470276,0.0516319,0.060318,0.0839844c0.0143127,0.0367584,0.0168762,0.0768852,0.0081787,0.1152725
	c-0.009201,0.0383415-0.0296478,0.0730972-0.0587921,0.099678c-0.5673981,0.8023987-1.2028046,1.5546455-1.8995361,2.2483139
	c-0.6711731,0.713501-1.4885406,1.2731934-2.3969116,1.6405792c-0.3864441,0.1572342-0.8112488,0.1953163-1.2201843,0.1093407
	c-0.408432-0.0859795-0.7820892-0.292038-1.0724487-0.5918427c-0.5397949-0.7497444-0.8649139-1.6326523-0.9395447-2.5535393
	c-0.0434418-0.2462349-0.1886139-0.3604317-0.3905487-0.3579292c-0.1078491,0.0076675-0.2111053,0.0449829-0.2985077,0.1078606
	c-0.0879211,0.0628738-0.1564331,0.1488037-0.198349,0.2482796c-0.1492615,0.3427963-0.2964935,0.6741943-0.4421539,0.9978714
	c-0.8720856,2.0083656-1.7906647,3.9928589-2.7547455,5.9536362c-0.1487579,0.2617226-0.2969971,0.5270233-0.4416656,0.8137474
	c-0.4590302,1.11866-1.1399231,2.1325302-2.0022736,2.98032c-0.5566711,0.3703957-1.0279846,0.4314308-1.4389801,0.1874466
	c-0.200882-0.1335678-0.3690491-0.3118172-0.4897003-0.5208931c-0.1211548-0.2090187-0.1927185-0.4432373-0.2080536-0.6843109
	c-0.0776978-1.5001564,0.0076599-3.0042419,0.2535553-4.4860458c0.2479095-1.5155411,0.5474548-3.0180473,0.8981323-4.5075645
	c0.1063232-0.4603195,0.2049866-0.9229851,0.3256226-1.3858032c0.3322601-1.4635544,0.7432556-2.9080925,1.2314148-4.3272247
	c0.0787354-0.2254314,0.2095947-0.4291344,0.3818665-0.59445c0.1722565-0.1653156,0.3813324-0.2875385,0.6098175-0.3567505
	c0.1860809-0.0592976,0.3849335-0.0672722,0.5750885-0.0231571c0.1906738,0.0441151,0.3654785,0.1387844,0.5065765,0.273941
	c0.2913666,0.2760868,0.3506622,0.6740894,0.1799316,1.2488079c-0.2356415,0.9736919-0.4856262,1.9560719-0.7498932,2.9470921
	c-0.9124603,3.4504509-1.6700287,6.8625145-2.2721863,10.2361374c0.2704163,0.1436386,0.747345-0.3513336,1.4307861-1.4849205
	c0.6834412-1.1335907,1.4558258-2.5821686,2.3171692-4.3457298c0.8546753-1.7623405,1.6664429-3.5000381,2.4367828-5.2130966
	l1.8228607-4.0378437c0.2632599-0.594656,0.411499-0.9445553,0.4753876-1.0625362
	c0.0506134-0.1100559,0.1277924-0.205698,0.2249298-0.27808c0.0971222-0.0724335,0.2111053-0.1193104,0.3312378-0.1364346
	c0.0981445-0.0136471,0.198349,0.0021477,0.287796,0.04529c0.0894623,0.0431442,0.164093,0.1117439,0.2146912,0.1972656
	c0.0526581,0.1040745,0.0751495,0.220726,0.0649109,0.336916c-0.0096893,0.1161919-0.052124,0.2272186-0.1221619,0.320713
	c-1.1593475,1.8554745-1.8254242,3.9767609-1.9342957,6.162199c-0.0071564,1.8778648,0.4564819,2.929409,1.3914185,3.1545296
	c0.9354706,0.2251778,2.0958405-0.3645706,3.4821625-1.7692871c0.5428619-0.5422058,1.0525055-1.1174355,1.5248413-1.7223129
	L235.8464508,33.438427z M289.2170105,39.5224686c0.1288147,0.0096092,0.2530212,0.0489693,0.3639526,0.1150627
	c0.1104126,0.0660439,0.203949,0.1570358,0.2734985,0.2656097c0.0710449,0.116703,0.1175537,0.2466927,0.1359558,0.3819504
	c0.0189209,0.1353111,0.0097046,0.2729683-0.0265808,0.4045982c-0.077179,0.317852-0.2596741,0.6002769-0.517334,0.8013725
	c-0.1113892,0.0947762-0.2407532,0.1661339-0.3802795,0.2096863c-0.1395569,0.043602-0.2868042,0.0585823-0.4324646,0.044014
	c-0.0107422,0.0012283-0.0220032,0.0002022-0.0327148-0.002964c-0.0107422-0.00317-0.0204468-0.0084877-0.0291443-0.0155411
	c-0.8976135-0.1508484-1.8070068-0.2232323-2.7169189-0.2163849c-0.9395447-0.0477943-1.8831482-0.0359344-2.8457031-0.0060272
	c-1.8985291,0.040432-3.8164673,0.1259537-5.7538452,0.2565079c-3.9007874,0.2880478-7.8020935,0.6594696-11.7028809,1.1143188
	c-7.8041687,0.8854065-15.6200867,1.9054108-23.4477386,3.0600128c-7.8276825,1.1545448-15.6563721,2.3656769-23.4865875,3.6334496
	l-1.0704041,0.1887779c-0.2642822,0.0245361-0.5295868,0.0639458-0.7974396,0.1111832
	c0.1773682,0.3367119,0.3690643,0.6929512,0.5515594,1.0397339c0.8056183,1.3826866,1.6945648,2.7153244,2.6611938,3.9902039
	c1.6822815,2.2767906,3.5174103,4.4365158,5.4925995,6.4643555c2.3785095,0.6241493,4.7166443,1.3939857,7.0005951,2.3054123
	c1.5003052,0.6011505,2.9520416,1.3183289,4.3409119,2.1454163c0.6926422,0.4104767,1.359726,0.8633728,1.9976807,1.3546219
	c0.3266449,0.2647858,0.6384583,0.5479813,0.9334106,0.8475266c0.3113098,0.2975082,0.5842743,0.6323318,0.8122711,0.9973145
	c0.1308594,0.21521,0.2397461,0.4421692,0.3256226,0.6788483c0.1047821,0.2877884,0.1416016,0.5960312,0.1073303,0.9006882
	c-0.0066376,0.1932297-0.0505981,0.3833847-0.1293182,0.560257l-0.1886292,0.2867661
	c-0.0260773,0.0500946-0.057251,0.097641-0.0925293,0.1416016c-0.029129,0.0286255-0.0603027,0.0552063-0.0930176,0.0792313
	l0.0056152,0.0316925c-0.2750092,0.2438278-0.6026764,0.4201889-0.9579468,0.5147552
	c-0.2719574,0.0531616-0.5500183,0.0700302-0.8260651,0.050087c-0.2259369-0.0163498-0.4493256-0.0506058-0.669632-0.1027374
	c-0.4186554-0.0991669-0.8265839-0.2392349-1.2181396-0.4181442c-0.7560272-0.3194885-1.4854889-0.6977539-2.1827393-1.130722
	c-0.6859894-0.4273453-1.352066-0.8654327-1.9976807-1.3551331c-1.2891846-0.9523315-2.5200958-1.9813309-3.6855927-3.0813828
	c-1.1721191-1.0811462-2.2962036-2.2123795-3.372757-3.3937149l-0.1180725-0.1042786
	c-0.0230103-0.0424271-0.0547028-0.0792313-0.0925293-0.1088829c-0.8705292-0.2489433-1.7436371-0.4851074-2.6197815-0.7084885
	c-3.1452942-0.7969284-6.3360443-1.4471474-9.5723267-1.9511681c-3.2362671-0.5035095-6.5134277-0.8848495-9.8309784-1.1440163
	c-6.7035675-0.5464478-13.4322205-0.7074699-20.1536865-0.4825516c-8.8423615,0.3072166-17.6637573,1.0591621-26.4304504,2.2537842
	c-2.9035034,0.5341797-5.7988129,1.0872726-8.6854401,1.660305c-6.913681,1.3443985-13.8171387,2.6974869-20.7103653,4.0602875
	l-2.8222122,0.5638275l-23.5024338,4.64814c-0.0736084,0.0158539-0.1502838,0.0148315-0.223381-0.0020447
	c-0.0736084-0.0168686-0.1426239-0.0495834-0.2024307-0.0955887c-0.0618439-0.0521393-0.1104126-0.1180801-0.1415939-0.1927109
	c-0.0306702-0.0746384-0.0434494-0.1553955-0.0368042-0.2361679c0.0025558-0.1656265,0.0598068-0.3256226,0.1625519-0.4554596
	c0.1012192-0.1318817,0.2412796-0.2284927,0.4002609-0.2765503c6.879425-1.7180634,13.7557907-3.2889099,20.6285782-4.711525
	c6.8727875-1.4231186,13.7440338-2.6443214,20.6142731-3.6646309c4.8035431-0.7217865,9.5973663-1.3571777,14.3819885-1.9066963
	l38.4824982-6.8993683c7.0169525-1.2595444,14.0354156-2.4969521,21.0549011-3.7126312
	c-0.4334717-0.8728905-0.8352509-1.7611656-1.2058563-2.6648254c-0.3123474-0.7691689-0.5970612-1.5505028-0.8480377-2.3488617
	c-0.2515106-0.7983093-0.483078-1.6111298-0.6977692-2.4527321c-0.4278564-1.650238-0.7693329-3.3218422-1.0228577-5.0078583
	c-0.5617828-3.476162-0.664032-7.0111122-0.3046722-10.5140114c0.2162323-1.8489304,0.592453-3.6757259,1.1235657-5.4598904
	c0.5316315-1.8318062,1.2559662-3.602272,2.1597443-5.2820024c0.9216309-1.7187843,2.024765-3.3342085,3.2894287-4.8189249
	c1.2636108-1.483285,2.668335-2.8400536,4.1947174-4.0511875c1.510025-1.1669679,3.1110229-2.2109976,4.788208-3.1220238
	c1.6393433-0.8940656,3.3548584-1.6410398,5.1260834-2.2321405c3.3748016-1.1105355,6.9356689-1.5445982,10.478653-1.2773426
	c1.6720581,0.1392592,3.32724,0.440161,4.9415436,0.8984933c1.5892639,0.4297932,3.1365814,1.0031254,4.6220703,1.7129163
	c2.9224091,1.3985677,5.5963745,3.264832,7.9176331,5.5252099c2.3825989,2.2548065,4.3404236,4.9194736,5.780426,7.8669271
	c0.7575378,1.5258656,1.3474426,3.1292763,1.7594299,4.7822723c0.4692993,1.689291,0.7100525,3.4338398,0.7161865,5.1870766
	c0.0071716,1.8668728-0.3016052,3.721529-0.9129944,5.4853477c-0.3215027,0.9023838-0.7345276,1.769289-1.2329407,2.5870228
	c-0.5162964,0.8397598-1.1179504,1.624012-1.7952271,2.3402748c-0.6620178,0.6873283-1.3766174,1.3214951-2.1383057,1.8967209
	c-0.7575378,0.5514641-1.5524292,1.0505753-2.378479,1.4938164c-1.5989685,0.8432884-3.3390198,1.3858566-5.1337738,1.6007538
	c-1.6884155,0.1884727-3.3972931,0.0117073-5.0110626-0.518383c-1.5534668-0.5013123-2.9955139-1.2993126-4.2448273-2.3497314
	c-1.2815247-1.0796585-2.3509064-2.3884811-3.1534576-3.8594971c-0.1768646-0.3367119-0.3562927-0.706192-0.535202-1.0756683
	c-0.0301666-0.0804634-0.0874176-0.1476822-0.1620483-0.1897507c-0.0751343-0.0420723-0.1625671-0.0562286-0.2463837-0.0399742
	c-0.0930328,0.0132408-0.180954,0.0488663-0.2561035,0.1039238c-0.0756531,0.0550003-0.1369934,0.1277428-0.177887,0.2117805
	l-0.275528,0.5232391c-0.7749481,1.6087303-1.6362762,3.1743622-2.5804291,4.6901588
	c-0.9196014,1.3641815-1.8090515,2.1220016-2.6678314,2.2734146c-0.3292084,0.0586319-0.6686249,0.0199852-0.9763489-0.1111298
	c-0.8521423-0.3403435-1.1629333-1.3502274-0.9313812-3.0296516c0.4564972-2.3503456,1.23349-4.626873,2.3100281-6.7655926
	c0.5111694-1.1002579,1.1317444-2.1465378,1.8519897-3.1230927c0.6195526-0.9158764,1.4624939-1.6584663,2.4490662-2.1575794
	c1.1925812-0.4556122,2.1576843-0.1719608,2.8947906,0.8510075c0.1308746,0.2269135,0.1957855,0.4860306,0.1865692,0.7478542
	c-0.0091858,0.2618256-0.0914917,0.515831-0.238205,0.7330818c0.106842,0.1479836,0.1687012,0.3236771,0.1779022,0.5059128
	l-0.0066528,0.2550259c-0.1737976,1.5932388,0.0322113,3.2049847,0.6011505,4.7031956
	c0.5346832,1.4713707,1.3796692,2.8107109,2.4771729,3.927227c1.0847015,1.1651764,2.4173584,2.0720596,3.8992615,2.6538811
	c1.4818878,0.581871,3.0752411,0.8238144,4.6634674,0.7080345c1.7548828-0.1266747,3.465271-0.6123428,5.0248718-1.4269028
	c1.6756592-0.8504486,3.1851807-1.9952812,4.4559326-3.3798561c0.968689-1.0395813,1.7533569-2.236866,2.3192139-3.5402679
	c0.1860657-0.4180908,0.3460693-0.84692,0.4804993-1.2842331c0.5301208-1.7114735,0.7340698-3.5073433,0.6006775-5.2941132
	c-0.1272888-1.6639366-0.4708252-3.3041039-1.0223694-4.8791962c-0.5116882-1.5248947-1.1802979-2.9928436-1.9935913-4.3803329
	c-0.3961792-0.6881485-0.8137817-1.3505325-1.2518616-1.9870005c-0.4380798-0.6567106-0.9083862-1.2909794-1.4098206-1.9003553
	c-0.9743347-1.2125139-2.0294189-2.3578596-3.1580811-3.428113c-2.2461243-2.1530809-4.8066101-3.9522228-7.5935516-5.3358436
	c-2.8411255-1.4115973-5.915863-2.2945957-9.07341-2.6058774c-3.338501-0.3476062-6.7132874-0.0215769-9.923996,0.9587651
	c-1.694046,0.5180943-3.3415833,1.1778564-4.9252167,1.9722986c-1.6326904,0.8280978-3.1933289,1.7913103-4.6655121,2.8795571
	c-1.4946899,1.114367-2.8748779,2.3745751-4.1201019,3.7621665c-1.2595367,1.3954649-2.360611,2.9260855-3.2832794,4.563899
	c-0.9134827,1.6377115-1.6684875,3.3590536-2.254303,5.1405077c-0.5469666,1.7335052-0.9400635,3.5118942-1.1752014,5.3144112
	c-0.2305298,1.7691364-0.3302155,3.5528393-0.2990417,5.336647c0.0322113,1.7328377,0.1686859,3.4622078,0.4089355,5.1785889
	c0.2550812,1.684536,0.5960541,3.3548088,1.0223694,5.0043297c0.4140472,1.6061707,0.9308624,3.1840782,1.546814,4.724102
	c0.3946381,0.9435349,0.8281097,1.8581314,1.3009644,2.7437477c8.5683594-1.4887543,17.1438751-2.9371262,25.7265625-4.3450127
	l5.8540039-0.9402122l5.8887634-0.9095879c3.9243011-0.5888748,7.8480988-1.158123,11.7719269-1.7076912
	c3.9232788-0.5495682,7.8460693-1.0301781,11.7667847-1.4419289c1.9593506-0.198288,3.9202271-0.3539429,5.8821411-0.4668579
	c0.9732971-0.0464706,1.9501648-0.0715141,2.9305725-0.0751457c0.9886169-0.0211601,1.9777527,0.0294952,2.959198,0.1515121
	L289.2170105,39.5224686z M217.0662994,51.0744209c-0.2177887-0.3809814-0.425827-0.7674294-0.6262054-1.1515808
	c-7.1140747,1.1684532-14.2281342,2.3702316-21.3427124,3.6052361c-7.8332825,1.3587112-15.6660614,2.7608719-23.4993591,4.2059708
	l-5.8882446,1.1005669l-1.8714294,0.3634491c6.4919586-0.62006,12.9629669-1.0448494,19.4135132-1.2743683
	c6.7935638-0.2167358,13.5308838-0.1400642,20.2119751,0.2295189c6.6126099,0.3501587,13.1858368,1.2350044,19.655304,2.6463699
	c0.2862701,0.0562286,0.569458,0.1201248,0.8551941,0.2167397l0.0322113-0.0056229
	c-1.5831146-1.8325729-3.0547943-3.7592049-4.4063416-5.7686462c-0.897644-1.3653526-1.7436371-2.7542267-2.5375061-4.1671219
	L217.0662994,51.0744209z M231.8674469,64.8169327c-1.4563446-0.6093292-2.9571686-1.1567993-4.5024719-1.6424141
	c-0.0071411-0.0076675-0.0163422-0.0138054-0.0265656-0.0173836c-0.0107422-0.003067-0.0214844-0.0035782-0.0322113-0.0015335
	l-0.0306702-0.0276031c0.7826233,0.7499008,1.5872192,1.472702,2.4137878,2.1684189
	c1.187973,1.034111,2.4158173,2.0089264,3.683548,2.9234238c0.6456146,0.4329681,1.3024902,0.8546906,1.9705811,1.2641449
	c0.658905,0.407402,1.3484955,0.7621613,2.0636292,1.0601807c0.3455658,0.1405716,0.7008362,0.257637,1.0622406,0.3496399
	c0.1824799,0.0317001,0.3670197,0.0521469,0.552063,0.061348c0.1523285,0.0148239,0.3056793,0.0086899,0.4564819-0.0184021
	c0.0552063-0.009201,0.1078644-0.0281143,0.155899-0.0567398c0.0250549-0.007164,0.046524-0.0224991,0.0618591-0.0439606
	l0.0306702-0.0347672l0.0301666-0.0383377l-0.0163574-0.0930252c0.0112457-0.1221695-0.0102234-0.2458801-0.0628815-0.3568039
	c-0.0608215-0.1364899-0.1272888-0.2831955-0.2060089-0.4380875c-0.203949-0.3067017-0.4355164-0.5934677-0.6921234-0.8572464
	c-0.2596893-0.2693863-0.5423737-0.5162811-0.8439636-0.7376251c-0.6067505-0.4856186-1.2436829-0.9323883-1.9066772-1.3382568
	c-1.3352203-0.807663-2.7266388-1.5176926-4.164566-2.1244583L231.8674469,64.8169327z M239.2447662,33.4095459
	c0.6936646-1.4101353,1.4287262-2.8055496,2.2057343-4.1862411c0.0250397-0.1813145,0.0899658-0.3548603,0.1901398-0.5081615
	l-0.0050964-0.0285759c-0.0214844,0.0037842-0.0286255,0.0050602-0.0306702-0.0277042
	c-0.0419159-0.0744801-0.0981445-0.1396046-0.1661377-0.1914368c-0.0505981-0.0352707-0.0858765-0.0474911-0.103775-0.0443192
	c-0.1605072,0.0733528-0.3067017,0.1739025-0.4329529,0.2971478c-0.3501587,0.3253651-0.664032,0.687891-0.9354706,1.0811405
	c-1.0928955,1.6658268-1.9639282,3.4670639-2.591156,5.3581161c-0.3537292,0.94701-0.6144409,1.9258652-0.7800598,2.922966
	c0.224411-0.3104362,0.4329834-0.632122,0.6246643-0.963829c0.6338654-1.0390167,1.3024902-2.2755051,2.0211945-3.7084923
	L239.2447662,33.4095459z"/>
</svg>
